{"asset":{"version":"2.0","generator":"babylon.js glTF exporter for 3dsmax 2020 v20200508.2"},"scene":0,"scenes":[{"nodes":[0,1]}],"nodes":[{"mesh":0,"translation":[0.0124770915,-0.02733482,-0.122223191],"scale":[0.71815,1.0,0.9491596],"name":"Colchao"},{"name":"Default light"}],"meshes":[{"primitives":[{"attributes":{"POSITION":1,"NORMAL":2,"TEXCOORD_0":3,"TEXCOORD_1":4},"indices":0,"material":0},{"attributes":{"POSITION":6,"NORMAL":7,"TEXCOORD_0":8,"TEXCOORD_1":9},"indices":5,"material":1}],"name":"Colchao"}],"accessors":[{"bufferView":0,"componentType":5123,"count":21084,"type":"SCALAR","name":"accessorIndices"},{"bufferView":1,"componentType":5126,"count":21084,"max":[1.017048,0.6990572,0.202461317],"min":[-1.02706385,0.27643317,-0.9045995],"type":"VEC3","name":"accessorPositions"},{"bufferView":1,"byteOffset":253008,"componentType":5126,"count":21084,"type":"VEC3","name":"accessorNormals"},{"bufferView":2,"componentType":5126,"count":21084,"type":"VEC2","name":"accessorUVs"},{"bufferView":2,"byteOffset":168672,"componentType":5126,"count":21084,"type":"VEC2","name":"accessorUV2s"},{"bufferView":0,"byteOffset":42168,"componentType":5123,"count":4845,"type":"SCALAR","name":"accessorIndices"},{"bufferView":1,"byteOffset":506016,"componentType":5126,"count":4845,"max":[1.00613785,0.509798169,1.103464],"min":[-1.013383,0.2918641,0.1737695],"type":"VEC3","name":"accessorPositions"},{"bufferView":1,"byteOffset":564156,"componentType":5126,"count":4845,"type":"VEC3","name":"accessorNormals"},{"bufferView":2,"byteOffset":337344,"componentType":5126,"count":4845,"type":"VEC2","name":"accessorUVs"},{"bufferView":2,"byteOffset":376104,"componentType":5126,"count":4845,"type":"VEC2","name":"accessorUV2s"}],"bufferViews":[{"buffer":0,"byteLength":51860,"name":"bufferViewScalar"},{"buffer":0,"byteOffset":51860,"byteLength":622296,"byteStride":12,"name":"bufferViewFloatVec3"},{"buffer":0,"byteOffset":674156,"byteLength":414864,"byteStride":8,"name":"bufferViewFloatVec2"}],"buffers":[{"uri":"Cama02.bin","byteLength":1089020}],"materials":[{"pbrMetallicRoughness":{"baseColorFactor":[0.5819608,0.5819608,0.5819608,1.0],"metallicFactor":0.0,"roughnessFactor":0.599999964},"name":"Colchao"},{"pbrMetallicRoughness":{"baseColorFactor":[0.142745093,0.6807843,0.420000017,1.0],"metallicFactor":0.0,"roughnessFactor":0.599999964},"name":"Wall Paint"}]}