{"asset":{"version":"2.0","generator":"babylon.js glTF exporter for 3dsmax 2020 v20200508.2"},"scene":0,"scenes":[{"nodes":[0,1,3,4,5,6,7,8,9,10,12,17]}],"nodes":[{"mesh":0,"translation":[1.14125,0.414126575,-0.981547236],"name":"Box053"},{"children":[2],"translation":[-0.966749847,0.290156543,-0.796048],"name":"Gaveta001"},{"mesh":1,"translation":[-1.52587887E-07,0.129046932,-0.007725067],"scale":[0.1,0.1,0.1],"name":"Box034"},{"mesh":2,"translation":[0.7762501,0.2502035,0.610452056],"name":"Box083"},{"mesh":3,"translation":[0.7762501,0.2502035,0.080952],"name":"Box084"},{"mesh":4,"translation":[0.7762501,0.2502035,-0.447547972],"name":"Box085"},{"mesh":5,"translation":[0.7762501,0.2502035,-0.977547944],"name":"Box086"},{"mesh":6,"translation":[-0.6106606,0.007210525,-0.973548055],"name":"Box088"},{"mesh":7,"translation":[0.221250147,0.007210525,0.835452],"name":"Box091"},{"mesh":8,"translation":[-0.231749877,0.007210525,0.835452],"name":"Box092"},{"children":[11],"translation":[-0.7757509,0.281703442,0.992451966],"name":"Barra001"},{"mesh":9,"translation":[-0.0110005187,-0.0100384522,-1.52587887E-07],"rotation":[-4.52377151E-07,-0.7071067,0.7071068,-4.52377066E-07],"scale":[0.1,0.1,0.1],"name":"Box061"},{"children":[13],"translation":[1.174748,0.0,-0.9814155],"rotation":[0.0,-1.0,0.0,-4.371139E-08],"scale":[1.0,1.0,0.912469149],"name":"Component_29"},{"children":[14],"translation":[1.942252,0.0,-0.0012464904],"rotation":[0.0,0.7071068,0.0,0.7071067],"name":"Component#4 [174245]"},{"children":[15,16],"translation":[0.903862834,0.5629399,-0.754596055],"rotation":[5.27949944E-22,0.7071068,-4.98372377E-20,0.7071067],"scale":[0.99999994,1.0,0.99999994],"name":"marylin 3d#1 [174224]"},{"mesh":10,"translation":[0.0225664489,-0.454110146,-0.775396466],"rotation":[0.7071068,1.54542974E-08,-1.5454301E-08,0.7071067],"scale":[0.99999994,0.9999999,0.99999994],"name":"Y [168950]"},{"mesh":11,"translation":[-0.731657,-0.3184362,-0.0776712],"rotation":[0.0,2.1855687E-08,-4.84676179E-27,1.0],"scale":[0.99999994,1.0,0.99999994],"name":"Group#412 [168952]"},{"name":"Default light"}],"meshes":[{"primitives":[{"attributes":{"POSITION":1,"NORMAL":2,"TEXCOORD_0":3},"indices":0,"material":0}],"name":"Box053"},{"primitives":[{"attributes":{"POSITION":5,"NORMAL":6,"TEXCOORD_0":7},"indices":4,"material":1}],"name":"Box034"},{"primitives":[{"attributes":{"POSITION":9,"NORMAL":10,"TEXCOORD_0":11},"indices":8,"material":2}],"name":"Box083"},{"primitives":[{"attributes":{"POSITION":13,"NORMAL":14,"TEXCOORD_0":15},"indices":12,"material":2}],"name":"Box084"},{"primitives":[{"attributes":{"POSITION":17,"NORMAL":18,"TEXCOORD_0":19},"indices":16,"material":2}],"name":"Box085"},{"primitives":[{"attributes":{"POSITION":21,"NORMAL":22,"TEXCOORD_0":23},"indices":20,"material":2}],"name":"Box086"},{"primitives":[{"attributes":{"POSITION":25,"NORMAL":26,"TEXCOORD_0":27},"indices":24,"material":1}],"name":"Box088"},{"primitives":[{"attributes":{"POSITION":29,"NORMAL":30,"TEXCOORD_0":31},"indices":28,"material":2}],"name":"Box091"},{"primitives":[{"attributes":{"POSITION":33,"NORMAL":34,"TEXCOORD_0":35},"indices":32,"material":2}],"name":"Box092"},{"primitives":[{"attributes":{"POSITION":37,"NORMAL":38,"TEXCOORD_0":39},"indices":36,"material":3},{"attributes":{"POSITION":41,"NORMAL":42,"TEXCOORD_0":43},"indices":40,"material":0},{"attributes":{"POSITION":45,"NORMAL":46,"TEXCOORD_0":47},"indices":44,"material":1}],"name":"Box061"},{"primitives":[{"attributes":{"POSITION":49,"NORMAL":50,"TEXCOORD_0":51},"indices":48,"material":4}],"name":"Y [168950]"},{"primitives":[{"attributes":{"POSITION":53,"NORMAL":54,"TEXCOORD_0":55},"indices":52,"material":4}],"name":"Group#412 [168952]"}],"accessors":[{"bufferView":0,"componentType":5123,"count":132,"type":"SCALAR","name":"accessorIndices"},{"bufferView":1,"componentType":5126,"count":132,"max":[1.66426994E-09,0.0100384224,0.0039994726],"min":[-2.28199983,-0.009961695,-0.00399938971],"type":"VEC3","name":"accessorPositions"},{"bufferView":1,"byteOffset":1584,"componentType":5126,"count":132,"type":"VEC3","name":"accessorNormals"},{"bufferView":2,"componentType":5126,"count":132,"type":"VEC2","name":"accessorUVs"},{"bufferView":0,"byteOffset":264,"componentType":5123,"count":684,"type":"SCALAR","name":"accessorIndices"},{"bufferView":1,"byteOffset":3168,"componentType":5126,"count":684,"max":[21.09,5.375,18.027256],"min":[-1.755,-4.175502,-1.88774729],"type":"VEC3","name":"accessorPositions"},{"bufferView":1,"byteOffset":11376,"componentType":5126,"count":684,"type":"VEC3","name":"accessorNormals"},{"bufferView":2,"byteOffset":1056,"componentType":5126,"count":684,"type":"VEC2","name":"accessorUVs"},{"bufferView":0,"byteOffset":1632,"componentType":5123,"count":36,"type":"SCALAR","name":"accessorIndices"},{"bufferView":1,"byteOffset":19584,"componentType":5126,"count":36,"max":[0.0,0.015,0.383999884],"min":[-1.552,0.0,0.0],"type":"VEC3","name":"accessorPositions"},{"bufferView":1,"byteOffset":20016,"componentType":5126,"count":36,"type":"VEC3","name":"accessorNormals"},{"bufferView":2,"byteOffset":6528,"componentType":5126,"count":36,"type":"VEC2","name":"accessorUVs"},{"bufferView":0,"byteOffset":1704,"componentType":5123,"count":36,"type":"SCALAR","name":"accessorIndices"},{"bufferView":1,"byteOffset":20448,"componentType":5126,"count":36,"max":[0.0,0.015,0.383999884],"min":[-1.552,0.0,0.0],"type":"VEC3","name":"accessorPositions"},{"bufferView":1,"byteOffset":20880,"componentType":5126,"count":36,"type":"VEC3","name":"accessorNormals"},{"bufferView":2,"byteOffset":6816,"componentType":5126,"count":36,"type":"VEC2","name":"accessorUVs"},{"bufferView":0,"byteOffset":1776,"componentType":5123,"count":36,"type":"SCALAR","name":"accessorIndices"},{"bufferView":1,"byteOffset":21312,"componentType":5126,"count":36,"max":[0.0,0.015,0.383999884],"min":[-1.552,0.0,0.0],"type":"VEC3","name":"accessorPositions"},{"bufferView":1,"byteOffset":21744,"componentType":5126,"count":36,"type":"VEC3","name":"accessorNormals"},{"bufferView":2,"byteOffset":7104,"componentType":5126,"count":36,"type":"VEC2","name":"accessorUVs"},{"bufferView":0,"byteOffset":1848,"componentType":5123,"count":36,"type":"SCALAR","name":"accessorIndices"},{"bufferView":1,"byteOffset":22176,"componentType":5126,"count":36,"max":[0.0,0.015,0.383999884],"min":[-1.552,0.0,0.0],"type":"VEC3","name":"accessorPositions"},{"bufferView":1,"byteOffset":22608,"componentType":5126,"count":36,"type":"VEC3","name":"accessorNormals"},{"bufferView":2,"byteOffset":7392,"componentType":5126,"count":36,"type":"VEC2","name":"accessorUVs"},{"bufferView":0,"byteOffset":1920,"componentType":5123,"count":36,"type":"SCALAR","name":"accessorIndices"},{"bufferView":1,"byteOffset":23040,"componentType":5126,"count":36,"max":[1.22791064,0.242992759,0.0109999822],"min":[-0.0060893246,-0.00555707933,-6.624553E-10],"type":"VEC3","name":"accessorPositions"},{"bufferView":1,"byteOffset":23472,"componentType":5126,"count":36,"type":"VEC3","name":"accessorNormals"},{"bufferView":2,"byteOffset":7680,"componentType":5126,"count":36,"type":"VEC2","name":"accessorUVs"},{"bufferView":0,"byteOffset":1992,"componentType":5123,"count":36,"type":"SCALAR","name":"accessorIndices"},{"bufferView":1,"byteOffset":23904,"componentType":5126,"count":36,"max":[0.0110000074,0.242992848,-5.96046434E-10],"min":[-6.62455535E-10,-0.005557081,-1.79799986],"type":"VEC3","name":"accessorPositions"},{"bufferView":1,"byteOffset":24336,"componentType":5126,"count":36,"type":"VEC3","name":"accessorNormals"},{"bufferView":2,"byteOffset":7968,"componentType":5126,"count":36,"type":"VEC2","name":"accessorUVs"},{"bufferView":0,"byteOffset":2064,"componentType":5123,"count":36,"type":"SCALAR","name":"accessorIndices"},{"bufferView":1,"byteOffset":24768,"componentType":5126,"count":36,"max":[0.0110000074,0.242992848,-5.96046434E-10],"min":[-6.62455535E-10,-0.005557081,-1.79799986],"type":"VEC3","name":"accessorPositions"},{"bufferView":1,"byteOffset":25200,"componentType":5126,"count":36,"type":"VEC3","name":"accessorNormals"},{"bufferView":2,"byteOffset":8256,"componentType":5126,"count":36,"type":"VEC2","name":"accessorUVs"},{"bufferView":0,"byteOffset":2136,"componentType":5123,"count":1056,"type":"SCALAR","name":"accessorIndices"},{"bufferView":1,"byteOffset":25632,"componentType":5126,"count":1056,"max":[0.0399968,19.6955166,1.165002],"min":[-15.7800016,-0.121567711,-0.100387275],"type":"VEC3","name":"accessorPositions"},{"bufferView":1,"byteOffset":38304,"componentType":5126,"count":1056,"type":"VEC3","name":"accessorNormals"},{"bufferView":2,"byteOffset":8544,"componentType":5126,"count":1056,"type":"VEC2","name":"accessorUVs"},{"bufferView":0,"byteOffset":4248,"componentType":5123,"count":3036,"type":"SCALAR","name":"accessorIndices"},{"bufferView":1,"byteOffset":50976,"componentType":5126,"count":3036,"max":[3.540011,19.7800083,1.16500211],"min":[-19.27999,-0.121564291,-6.850388],"type":"VEC3","name":"accessorPositions"},{"bufferView":1,"byteOffset":87408,"componentType":5126,"count":3036,"type":"VEC3","name":"accessorNormals"},{"bufferView":2,"byteOffset":16992,"componentType":5126,"count":3036,"type":"VEC2","name":"accessorUVs"},{"bufferView":0,"byteOffset":10320,"componentType":5123,"count":528,"type":"SCALAR","name":"accessorIndices"},{"bufferView":1,"byteOffset":123840,"componentType":5126,"count":528,"max":[3.55500484,16.1499882,1.16499937],"min":[-0.10945709,16.0699959,-0.10038662],"type":"VEC3","name":"accessorPositions"},{"bufferView":1,"byteOffset":130176,"componentType":5126,"count":528,"type":"VEC3","name":"accessorNormals"},{"bufferView":2,"byteOffset":41280,"componentType":5126,"count":528,"type":"VEC2","name":"accessorUVs"},{"bufferView":0,"byteOffset":11376,"componentType":5123,"count":27648,"type":"SCALAR","name":"accessorIndices"},{"bufferView":1,"byteOffset":136512,"componentType":5126,"count":27648,"max":[0.748809159,1.96655357,-0.138748571],"min":[-0.7771624,0.380032837,-0.4462275],"type":"VEC3","name":"accessorPositions"},{"bufferView":1,"byteOffset":468288,"componentType":5126,"count":27648,"type":"VEC3","name":"accessorNormals"},{"bufferView":2,"byteOffset":45504,"componentType":5126,"count":27648,"type":"VEC2","name":"accessorUVs"},{"bufferView":0,"byteOffset":66672,"componentType":5123,"count":11520,"type":"SCALAR","name":"accessorIndices"},{"bufferView":1,"byteOffset":800064,"componentType":5126,"count":11520,"max":[1.50223339,0.2958485,0.0],"min":[5.76894341E-16,0.0,-0.335706562],"type":"VEC3","name":"accessorPositions"},{"bufferView":1,"byteOffset":938304,"componentType":5126,"count":11520,"type":"VEC3","name":"accessorNormals"},{"bufferView":2,"byteOffset":266688,"componentType":5126,"count":11520,"type":"VEC2","name":"accessorUVs"}],"bufferViews":[{"buffer":0,"byteLength":89712,"name":"bufferViewScalar"},{"buffer":0,"byteOffset":89712,"byteLength":1076544,"byteStride":12,"name":"bufferViewFloatVec3"},{"buffer":0,"byteOffset":1166256,"byteLength":358848,"byteStride":8,"name":"bufferViewFloatVec2"}],"buffers":[{"uri":"Cama02.bin","byteLength":1525104}],"materials":[{"pbrMetallicRoughness":{"baseColorTexture":{"index":1},"metallicFactor":0.0,"roughnessFactor":0.9},"occlusionTexture":{"index":0},"name":"Carvalho2"},{"pbrMetallicRoughness":{"baseColorTexture":{"index":3},"metallicFactor":0.0,"roughnessFactor":0.9},"occlusionTexture":{"index":2},"name":"Carvalho1"},{"pbrMetallicRoughness":{"baseColorTexture":{"index":4},"metallicFactor":0.0,"roughnessFactor":0.6},"name":"MAD_MDF"},{"pbrMetallicRoughness":{"baseColorTexture":{"index":3},"metallicRoughnessTexture":{"index":5}},"name":"Carvalho 01"},{"pbrMetallicRoughness":{"baseColorFactor":[0.243137255,0.243137255,0.243137255,1.0],"metallicFactor":0.0,"roughnessFactor":0.8},"name":"06 - Default"}],"textures":[{"sampler":0,"source":0,"name":"american_walnut_crown_cut_Roughness_2.jpg"},{"sampler":0,"source":1,"name":"american_walnut_crown_cut_Base_Color_2.jpg"},{"sampler":0,"source":2,"name":"american_walnut_crown_cut_Roughness.jpg"},{"sampler":0,"source":3,"name":"american_walnut_crown_cut_Base_Color.jpg"},{"sampler":0,"source":4,"name":"MDF_C.jpg"},{"sampler":1,"source":5,"name":"american_walnut_crown_cut_Roughness0.jpg"}],"images":[{"uri":"./american_walnut_crown_cut_Roughness_2.jpg"},{"uri":"./american_walnut_crown_cut_Base_Color_2.jpg"},{"uri":"./american_walnut_crown_cut_Roughness.jpg"},{"uri":"./american_walnut_crown_cut_Base_Color.jpg"},{"uri":"./MDF_C.jpg"},{"uri":"./american_walnut_crown_cut_Roughness0.jpg"}],"samplers":[{"magFilter":9729,"minFilter":9987},{"magFilter":9729,"minFilter":9987,"wrapS":33648}]}