{"asset":{"version":"2.0","generator":"babylon.js glTF exporter for 3dsmax 2020 v20200508.2"},"scene":0,"scenes":[{"nodes":[0,1]}],"nodes":[{"mesh":0,"translation":[0.0124770915,-0.02733482,-0.122223191],"scale":[0.71815,1.0,0.9491596],"name":"Colchão"},{"name":"Default light"}],"meshes":[{"primitives":[{"attributes":{"POSITION":1,"NORMAL":2,"TEXCOORD_0":3,"TEXCOORD_1":4},"indices":0,"material":0},{"attributes":{"POSITION":6,"NORMAL":7,"TEXCOORD_0":8,"TEXCOORD_1":9},"indices":5,"material":1},{"attributes":{"POSITION":11,"NORMAL":12,"TEXCOORD_0":13,"TEXCOORD_1":14},"indices":10,"material":2},{"attributes":{"POSITION":16,"NORMAL":17,"TEXCOORD_0":18,"TEXCOORD_1":19},"indices":15,"material":3},{"attributes":{"POSITION":21,"NORMAL":22,"TEXCOORD_0":23,"TEXCOORD_1":24},"indices":20,"material":4}],"name":"Colchão"}],"accessors":[{"bufferView":0,"componentType":5123,"count":21084,"type":"SCALAR","name":"accessorIndices"},{"bufferView":1,"componentType":5126,"count":21084,"max":[1.017048,0.6990572,0.202461317],"min":[-1.02706385,0.27643317,-0.9045995],"type":"VEC3","name":"accessorPositions"},{"bufferView":1,"byteOffset":253008,"componentType":5126,"count":21084,"type":"VEC3","name":"accessorNormals"},{"bufferView":2,"componentType":5126,"count":21084,"type":"VEC2","name":"accessorUVs"},{"bufferView":2,"byteOffset":168672,"componentType":5126,"count":21084,"type":"VEC2","name":"accessorUV2s"},{"bufferView":0,"byteOffset":42168,"componentType":5123,"count":4845,"type":"SCALAR","name":"accessorIndices"},{"bufferView":1,"byteOffset":506016,"componentType":5126,"count":4845,"max":[1.00613785,0.509798169,1.103464],"min":[-1.013383,0.2918641,0.1737695],"type":"VEC3","name":"accessorPositions"},{"bufferView":1,"byteOffset":564156,"componentType":5126,"count":4845,"type":"VEC3","name":"accessorNormals"},{"bufferView":2,"byteOffset":337344,"componentType":5126,"count":4845,"type":"VEC2","name":"accessorUVs"},{"bufferView":2,"byteOffset":376104,"componentType":5126,"count":4845,"type":"VEC2","name":"accessorUV2s"},{"bufferView":0,"byteOffset":51860,"componentType":5123,"count":1056,"type":"SCALAR","name":"accessorIndices"},{"bufferView":1,"byteOffset":622296,"componentType":5126,"count":1056,"max":[1.08441758,0.309038222,1.18718886],"min":[-1.11846507,0.1824996,-0.900665164],"type":"VEC3","name":"accessorPositions"},{"bufferView":1,"byteOffset":634968,"componentType":5126,"count":1056,"type":"VEC3","name":"accessorNormals"},{"bufferView":2,"byteOffset":414864,"componentType":5126,"count":1056,"type":"VEC2","name":"accessorUVs"},{"bufferView":2,"byteOffset":423312,"componentType":5126,"count":1056,"type":"VEC2","name":"accessorUV2s"},{"bufferView":0,"byteOffset":53972,"componentType":5123,"count":3036,"type":"SCALAR","name":"accessorIndices"},{"bufferView":1,"byteOffset":647640,"componentType":5126,"count":3036,"max":[1.57177913,0.9840383,1.1871891],"min":[-1.60583031,0.182499617,-0.9095661],"type":"VEC3","name":"accessorPositions"},{"bufferView":1,"byteOffset":684072,"componentType":5126,"count":3036,"type":"VEC3","name":"accessorNormals"},{"bufferView":2,"byteOffset":431760,"componentType":5126,"count":3036,"type":"VEC2","name":"accessorUVs"},{"bufferView":2,"byteOffset":456048,"componentType":5126,"count":3036,"type":"VEC2","name":"accessorUV2s"},{"bufferView":0,"byteOffset":60044,"componentType":5123,"count":1212,"type":"SCALAR","name":"accessorIndices"},{"bufferView":1,"byteOffset":720504,"componentType":5126,"count":1212,"max":[1.57317138,0.9840383,1.18123007],"min":[-1.6079191,0.02898815,-0.9169423],"type":"VEC3","name":"accessorPositions"},{"bufferView":1,"byteOffset":735048,"componentType":5126,"count":1212,"type":"VEC3","name":"accessorNormals"},{"bufferView":2,"byteOffset":480336,"componentType":5126,"count":1212,"type":"VEC2","name":"accessorUVs"},{"bufferView":2,"byteOffset":490032,"componentType":5126,"count":1212,"type":"VEC2","name":"accessorUV2s"}],"bufferViews":[{"buffer":0,"byteLength":62468,"name":"bufferViewScalar"},{"buffer":0,"byteOffset":62468,"byteLength":749592,"byteStride":12,"name":"bufferViewFloatVec3"},{"buffer":0,"byteOffset":812060,"byteLength":499728,"byteStride":8,"name":"bufferViewFloatVec2"}],"buffers":[{"uri":"Cama02.bin","byteLength":1311788}],"materials":[{"pbrMetallicRoughness":{"baseColorFactor":[0.5819608,0.5819608,0.5819608,1.0],"metallicFactor":0.0,"roughnessFactor":0.599999964},"name":"Colchao"},{"pbrMetallicRoughness":{"baseColorFactor":[0.7,0.141007185,0.141007185,1.0],"metallicFactor":0.0,"roughnessFactor":0.599999964},"name":"Wall Paint"},{"pbrMetallicRoughness":{"baseColorTexture":{"index":0},"metallicRoughnessTexture":{"index":1}},"name":"Carvalho 01"},{"pbrMetallicRoughness":{"baseColorTexture":{"index":3},"metallicFactor":0.0,"roughnessFactor":0.9},"occlusionTexture":{"index":2},"name":"Carvalho2"},{"pbrMetallicRoughness":{"baseColorTexture":{"index":0},"metallicFactor":0.0,"roughnessFactor":0.9},"occlusionTexture":{"index":4},"name":"Carvalho1"}],"textures":[{"sampler":0,"source":0,"name":"american_walnut_crown_cut_Base_Color.jpg"},{"sampler":1,"source":1,"name":"american_walnut_crown_cut_Roughness0.jpg"},{"sampler":0,"source":2,"name":"american_walnut_crown_cut_Roughness_2.jpg"},{"sampler":0,"source":3,"name":"american_walnut_crown_cut_Base_Color_2.jpg"},{"sampler":0,"source":4,"name":"american_walnut_crown_cut_Roughness.jpg"}],"images":[{"uri":"./american_walnut_crown_cut_Base_Color.jpg"},{"uri":"./american_walnut_crown_cut_Roughness0.jpg"},{"uri":"./american_walnut_crown_cut_Roughness_2.jpg"},{"uri":"./american_walnut_crown_cut_Base_Color_2.jpg"},{"uri":"./american_walnut_crown_cut_Roughness.jpg"}],"samplers":[{"magFilter":9729,"minFilter":9987},{"magFilter":9729,"minFilter":9987,"wrapS":33648}]}