{"asset":{"version":"2.0","generator":"babylon.js glTF exporter for 3dsmax 2020 v20200508.2"},"scene":0,"scenes":[{"nodes":[0,3,4]}],"nodes":[{"children":[1],"translation":[1.174748,0.0,-0.9814155],"rotation":[0.0,-1.0,0.0,-4.371139E-08],"scale":[1.0,1.0,0.912469149],"name":"Component_29"},{"children":[2],"translation":[1.942252,0.0,-0.0012464904],"rotation":[0.0,0.7071068,0.0,0.7071067],"name":"Component#4 [174245]"},{"translation":[0.903862834,0.5629399,-0.754596055],"rotation":[5.27949944E-22,0.7071068,-4.98372377E-20,0.7071067],"scale":[0.99999994,1.0,0.99999994],"name":"marylin 3d#1 [174224]"},{"mesh":0,"translation":[0.0149466321,0.0,-0.725385964],"name":"Box093"},{"name":"Default light"}],"meshes":[{"primitives":[{"attributes":{"POSITION":1,"NORMAL":2,"TEXCOORD_0":3},"indices":0,"material":0}],"name":"Box093"}],"accessors":[{"bufferView":0,"componentType":5123,"count":1044,"type":"SCALAR","name":"accessorIndices"},{"bufferView":1,"componentType":5126,"count":1044,"max":[0.6952295,0.45475778,0.2451007],"min":[-0.7119462,0.27106142,-0.2451007],"type":"VEC3","name":"accessorPositions"},{"bufferView":1,"byteOffset":12528,"componentType":5126,"count":1044,"type":"VEC3","name":"accessorNormals"},{"bufferView":2,"componentType":5126,"count":1044,"type":"VEC2","name":"accessorUVs"}],"bufferViews":[{"buffer":0,"byteLength":2088,"name":"bufferViewScalar"},{"buffer":0,"byteOffset":2088,"byteLength":25056,"byteStride":12,"name":"bufferViewFloatVec3"},{"buffer":0,"byteOffset":27144,"byteLength":8352,"byteStride":8,"name":"bufferViewFloatVec2"}],"buffers":[{"uri":"Cama02.bin","byteLength":35496}],"materials":[{"pbrMetallicRoughness":{"baseColorFactor":[0.5819608,0.5819608,0.5819608,1.0],"metallicFactor":0.0,"roughnessFactor":0.599999964},"name":"Colchao"}]}