{"asset":{"version":"2.0","generator":"babylon.js glTF exporter for 3dsmax 2020 v20200508.2"},"scene":0,"scenes":[{"nodes":[0,1,2]}],"nodes":[{"mesh":0,"translation":[0.0,-0.27513817,-1.20266721E-08],"name":"Minotti_Tatlin_Soft_244"},{"mesh":1,"translation":[0.19347991,0.20770511,0.21259208],"name":"poliform_onda_01_pillows"},{"name":"Default light"}],"meshes":[{"primitives":[{"attributes":{"POSITION":1,"NORMAL":2,"TEXCOORD_0":3,"TEXCOORD_1":4},"indices":0}],"name":"Minotti_Tatlin_Soft_244"},{"primitives":[{"attributes":{"POSITION":6,"NORMAL":7,"TEXCOORD_0":8},"indices":5}],"name":"poliform_onda_01_pillows"}],"accessors":[{"bufferView":0,"componentType":5123,"count":14010,"type":"SCALAR","name":"accessorIndices"},{"bufferView":1,"componentType":5126,"count":14010,"max":[1.017048,0.5179285,1.103464],"min":[-1.02706385,0.27643317,-0.8953202],"type":"VEC3","name":"accessorPositions"},{"bufferView":1,"byteOffset":168120,"componentType":5126,"count":14010,"type":"VEC3","name":"accessorNormals"},{"bufferView":2,"componentType":5126,"count":14010,"type":"VEC2","name":"accessorUVs"},{"bufferView":2,"byteOffset":112080,"componentType":5126,"count":14010,"type":"VEC2","name":"accessorUV2s"},{"bufferView":0,"byteOffset":28020,"componentType":5123,"count":12114,"type":"SCALAR","name":"accessorIndices"},{"bufferView":1,"byteOffset":336240,"componentType":5126,"count":12114,"max":[0.648430645,0.2601432,-0.485975742],"min":[-0.926586568,-0.0102257151,-1.064012],"type":"VEC3","name":"accessorPositions"},{"bufferView":1,"byteOffset":481608,"componentType":5126,"count":12114,"type":"VEC3","name":"accessorNormals"},{"bufferView":2,"byteOffset":224160,"componentType":5126,"count":12114,"type":"VEC2","name":"accessorUVs"}],"bufferViews":[{"buffer":0,"byteLength":52248,"name":"bufferViewScalar"},{"buffer":0,"byteOffset":52248,"byteLength":626976,"byteStride":12,"name":"bufferViewFloatVec3"},{"buffer":0,"byteOffset":679224,"byteLength":321072,"byteStride":8,"name":"bufferViewFloatVec2"}],"buffers":[{"uri":"Cama02.bin","byteLength":1000296}]}