{"asset":{"version":"2.0","generator":"babylon.js glTF exporter for 3dsmax 2020 v20200508.2"},"scene":0,"scenes":[{"nodes":[0,1,2,3,4,5,6,7,8,9]}],"nodes":[{"mesh":0,"translation":[1.14125,0.414126575,-0.981547236],"name":"Box053"},{"mesh":1,"translation":[0.7762501,0.2502035,0.610452056],"name":"Box083"},{"mesh":2,"translation":[0.7762501,0.2502035,0.080952],"name":"Box084"},{"mesh":3,"translation":[0.7762501,0.2502035,-0.447547972],"name":"Box085"},{"mesh":4,"translation":[0.7762501,0.2502035,-0.977547944],"name":"Box086"},{"mesh":5,"translation":[-0.6106606,0.007210525,-0.973548055],"name":"Box088"},{"mesh":6,"translation":[0.221250147,0.007210525,0.835452],"name":"Box091"},{"mesh":7,"translation":[-0.231749877,0.007210525,0.835452],"name":"Box092"},{"mesh":8,"translation":[0.0124770915,-0.02733482,-0.122223191],"scale":[0.71815,1.0,0.9491596],"name":"Colchão"},{"name":"Default light"}],"meshes":[{"primitives":[{"attributes":{"POSITION":1,"NORMAL":2,"TEXCOORD_0":3},"indices":0,"material":0}],"name":"Box053"},{"primitives":[{"attributes":{"POSITION":5,"NORMAL":6,"TEXCOORD_0":7},"indices":4,"material":1}],"name":"Box083"},{"primitives":[{"attributes":{"POSITION":9,"NORMAL":10,"TEXCOORD_0":11},"indices":8,"material":1}],"name":"Box084"},{"primitives":[{"attributes":{"POSITION":13,"NORMAL":14,"TEXCOORD_0":15},"indices":12,"material":1}],"name":"Box085"},{"primitives":[{"attributes":{"POSITION":17,"NORMAL":18,"TEXCOORD_0":19},"indices":16,"material":1}],"name":"Box086"},{"primitives":[{"attributes":{"POSITION":21,"NORMAL":22,"TEXCOORD_0":23},"indices":20,"material":2}],"name":"Box088"},{"primitives":[{"attributes":{"POSITION":25,"NORMAL":26,"TEXCOORD_0":27},"indices":24,"material":1}],"name":"Box091"},{"primitives":[{"attributes":{"POSITION":29,"NORMAL":30,"TEXCOORD_0":31},"indices":28,"material":1}],"name":"Box092"},{"primitives":[{"attributes":{"POSITION":33,"NORMAL":34,"TEXCOORD_0":35,"TEXCOORD_1":36},"indices":32,"material":3},{"attributes":{"POSITION":38,"NORMAL":39,"TEXCOORD_0":40,"TEXCOORD_1":41},"indices":37,"material":4},{"attributes":{"POSITION":43,"NORMAL":44,"TEXCOORD_0":45,"TEXCOORD_1":46},"indices":42,"material":5},{"attributes":{"POSITION":48,"NORMAL":49,"TEXCOORD_0":50,"TEXCOORD_1":51},"indices":47,"material":0},{"attributes":{"POSITION":53,"NORMAL":54,"TEXCOORD_0":55,"TEXCOORD_1":56},"indices":52,"material":2}],"name":"Colchão"}],"accessors":[{"bufferView":0,"componentType":5123,"count":132,"type":"SCALAR","name":"accessorIndices"},{"bufferView":1,"componentType":5126,"count":132,"max":[1.66426994E-09,0.0100384224,0.0039994726],"min":[-2.28199983,-0.009961695,-0.00399938971],"type":"VEC3","name":"accessorPositions"},{"bufferView":1,"byteOffset":1584,"componentType":5126,"count":132,"type":"VEC3","name":"accessorNormals"},{"bufferView":2,"componentType":5126,"count":132,"type":"VEC2","name":"accessorUVs"},{"bufferView":0,"byteOffset":264,"componentType":5123,"count":36,"type":"SCALAR","name":"accessorIndices"},{"bufferView":1,"byteOffset":3168,"componentType":5126,"count":36,"max":[0.0,0.015,0.383999884],"min":[-1.552,0.0,0.0],"type":"VEC3","name":"accessorPositions"},{"bufferView":1,"byteOffset":3600,"componentType":5126,"count":36,"type":"VEC3","name":"accessorNormals"},{"bufferView":2,"byteOffset":1056,"componentType":5126,"count":36,"type":"VEC2","name":"accessorUVs"},{"bufferView":0,"byteOffset":336,"componentType":5123,"count":36,"type":"SCALAR","name":"accessorIndices"},{"bufferView":1,"byteOffset":4032,"componentType":5126,"count":36,"max":[0.0,0.015,0.383999884],"min":[-1.552,0.0,0.0],"type":"VEC3","name":"accessorPositions"},{"bufferView":1,"byteOffset":4464,"componentType":5126,"count":36,"type":"VEC3","name":"accessorNormals"},{"bufferView":2,"byteOffset":1344,"componentType":5126,"count":36,"type":"VEC2","name":"accessorUVs"},{"bufferView":0,"byteOffset":408,"componentType":5123,"count":36,"type":"SCALAR","name":"accessorIndices"},{"bufferView":1,"byteOffset":4896,"componentType":5126,"count":36,"max":[0.0,0.015,0.383999884],"min":[-1.552,0.0,0.0],"type":"VEC3","name":"accessorPositions"},{"bufferView":1,"byteOffset":5328,"componentType":5126,"count":36,"type":"VEC3","name":"accessorNormals"},{"bufferView":2,"byteOffset":1632,"componentType":5126,"count":36,"type":"VEC2","name":"accessorUVs"},{"bufferView":0,"byteOffset":480,"componentType":5123,"count":36,"type":"SCALAR","name":"accessorIndices"},{"bufferView":1,"byteOffset":5760,"componentType":5126,"count":36,"max":[0.0,0.015,0.383999884],"min":[-1.552,0.0,0.0],"type":"VEC3","name":"accessorPositions"},{"bufferView":1,"byteOffset":6192,"componentType":5126,"count":36,"type":"VEC3","name":"accessorNormals"},{"bufferView":2,"byteOffset":1920,"componentType":5126,"count":36,"type":"VEC2","name":"accessorUVs"},{"bufferView":0,"byteOffset":552,"componentType":5123,"count":36,"type":"SCALAR","name":"accessorIndices"},{"bufferView":1,"byteOffset":6624,"componentType":5126,"count":36,"max":[1.22791064,0.242992759,0.0109999822],"min":[-0.0060893246,-0.00555707933,-6.624553E-10],"type":"VEC3","name":"accessorPositions"},{"bufferView":1,"byteOffset":7056,"componentType":5126,"count":36,"type":"VEC3","name":"accessorNormals"},{"bufferView":2,"byteOffset":2208,"componentType":5126,"count":36,"type":"VEC2","name":"accessorUVs"},{"bufferView":0,"byteOffset":624,"componentType":5123,"count":36,"type":"SCALAR","name":"accessorIndices"},{"bufferView":1,"byteOffset":7488,"componentType":5126,"count":36,"max":[0.0110000074,0.242992848,-5.96046434E-10],"min":[-6.62455535E-10,-0.005557081,-1.79799986],"type":"VEC3","name":"accessorPositions"},{"bufferView":1,"byteOffset":7920,"componentType":5126,"count":36,"type":"VEC3","name":"accessorNormals"},{"bufferView":2,"byteOffset":2496,"componentType":5126,"count":36,"type":"VEC2","name":"accessorUVs"},{"bufferView":0,"byteOffset":696,"componentType":5123,"count":36,"type":"SCALAR","name":"accessorIndices"},{"bufferView":1,"byteOffset":8352,"componentType":5126,"count":36,"max":[0.0110000074,0.242992848,-5.96046434E-10],"min":[-6.62455535E-10,-0.005557081,-1.79799986],"type":"VEC3","name":"accessorPositions"},{"bufferView":1,"byteOffset":8784,"componentType":5126,"count":36,"type":"VEC3","name":"accessorNormals"},{"bufferView":2,"byteOffset":2784,"componentType":5126,"count":36,"type":"VEC2","name":"accessorUVs"},{"bufferView":0,"byteOffset":768,"componentType":5123,"count":21084,"type":"SCALAR","name":"accessorIndices"},{"bufferView":1,"byteOffset":9216,"componentType":5126,"count":21084,"max":[1.017048,0.6990572,0.202461317],"min":[-1.02706385,0.27643317,-0.9045995],"type":"VEC3","name":"accessorPositions"},{"bufferView":1,"byteOffset":262224,"componentType":5126,"count":21084,"type":"VEC3","name":"accessorNormals"},{"bufferView":2,"byteOffset":3072,"componentType":5126,"count":21084,"type":"VEC2","name":"accessorUVs"},{"bufferView":2,"byteOffset":171744,"componentType":5126,"count":21084,"type":"VEC2","name":"accessorUV2s"},{"bufferView":0,"byteOffset":42936,"componentType":5123,"count":4845,"type":"SCALAR","name":"accessorIndices"},{"bufferView":1,"byteOffset":515232,"componentType":5126,"count":4845,"max":[1.00613785,0.509798169,1.103464],"min":[-1.013383,0.2918641,0.1737695],"type":"VEC3","name":"accessorPositions"},{"bufferView":1,"byteOffset":573372,"componentType":5126,"count":4845,"type":"VEC3","name":"accessorNormals"},{"bufferView":2,"byteOffset":340416,"componentType":5126,"count":4845,"type":"VEC2","name":"accessorUVs"},{"bufferView":2,"byteOffset":379176,"componentType":5126,"count":4845,"type":"VEC2","name":"accessorUV2s"},{"bufferView":0,"byteOffset":52628,"componentType":5123,"count":1056,"type":"SCALAR","name":"accessorIndices"},{"bufferView":1,"byteOffset":631512,"componentType":5126,"count":1056,"max":[1.08441758,0.309038222,1.18718886],"min":[-1.11846507,0.1824996,-0.900665164],"type":"VEC3","name":"accessorPositions"},{"bufferView":1,"byteOffset":644184,"componentType":5126,"count":1056,"type":"VEC3","name":"accessorNormals"},{"bufferView":2,"byteOffset":417936,"componentType":5126,"count":1056,"type":"VEC2","name":"accessorUVs"},{"bufferView":2,"byteOffset":426384,"componentType":5126,"count":1056,"type":"VEC2","name":"accessorUV2s"},{"bufferView":0,"byteOffset":54740,"componentType":5123,"count":3036,"type":"SCALAR","name":"accessorIndices"},{"bufferView":1,"byteOffset":656856,"componentType":5126,"count":3036,"max":[1.57177913,0.9840383,1.1871891],"min":[-1.60583031,0.182499617,-0.9095661],"type":"VEC3","name":"accessorPositions"},{"bufferView":1,"byteOffset":693288,"componentType":5126,"count":3036,"type":"VEC3","name":"accessorNormals"},{"bufferView":2,"byteOffset":434832,"componentType":5126,"count":3036,"type":"VEC2","name":"accessorUVs"},{"bufferView":2,"byteOffset":459120,"componentType":5126,"count":3036,"type":"VEC2","name":"accessorUV2s"},{"bufferView":0,"byteOffset":60812,"componentType":5123,"count":1212,"type":"SCALAR","name":"accessorIndices"},{"bufferView":1,"byteOffset":729720,"componentType":5126,"count":1212,"max":[1.57317138,0.9840383,1.18123007],"min":[-1.6079191,0.02898815,-0.9169423],"type":"VEC3","name":"accessorPositions"},{"bufferView":1,"byteOffset":744264,"componentType":5126,"count":1212,"type":"VEC3","name":"accessorNormals"},{"bufferView":2,"byteOffset":483408,"componentType":5126,"count":1212,"type":"VEC2","name":"accessorUVs"},{"bufferView":2,"byteOffset":493104,"componentType":5126,"count":1212,"type":"VEC2","name":"accessorUV2s"}],"bufferViews":[{"buffer":0,"byteLength":63236,"name":"bufferViewScalar"},{"buffer":0,"byteOffset":63236,"byteLength":758808,"byteStride":12,"name":"bufferViewFloatVec3"},{"buffer":0,"byteOffset":822044,"byteLength":502800,"byteStride":8,"name":"bufferViewFloatVec2"}],"buffers":[{"uri":"Cama02.bin","byteLength":1324844}],"materials":[{"pbrMetallicRoughness":{"baseColorTexture":{"index":1},"metallicFactor":0.0,"roughnessFactor":0.9},"occlusionTexture":{"index":0},"name":"Carvalho2"},{"pbrMetallicRoughness":{"baseColorTexture":{"index":2},"metallicFactor":0.0,"roughnessFactor":0.6},"name":"MAD_MDF"},{"pbrMetallicRoughness":{"baseColorTexture":{"index":4},"metallicFactor":0.0,"roughnessFactor":0.9},"occlusionTexture":{"index":3},"name":"Carvalho1"},{"pbrMetallicRoughness":{"baseColorFactor":[0.5819608,0.5819608,0.5819608,1.0],"metallicFactor":0.0,"roughnessFactor":0.599999964},"name":"Colchao"},{"pbrMetallicRoughness":{"baseColorFactor":[0.142745093,0.6807843,0.420000017,1.0],"metallicFactor":0.0,"roughnessFactor":0.599999964},"name":"Wall Paint"},{"pbrMetallicRoughness":{"baseColorTexture":{"index":4},"metallicRoughnessTexture":{"index":5}},"name":"Carvalho 01"}],"textures":[{"sampler":0,"source":0,"name":"american_walnut_crown_cut_Roughness_2.jpg"},{"sampler":0,"source":1,"name":"american_walnut_crown_cut_Base_Color_2.jpg"},{"sampler":0,"source":2,"name":"MDF_C.jpg"},{"sampler":0,"source":3,"name":"american_walnut_crown_cut_Roughness.jpg"},{"sampler":0,"source":4,"name":"american_walnut_crown_cut_Base_Color.jpg"},{"sampler":1,"source":5,"name":"american_walnut_crown_cut_Roughness0.jpg"}],"images":[{"uri":"./american_walnut_crown_cut_Roughness_2.jpg"},{"uri":"./american_walnut_crown_cut_Base_Color_2.jpg"},{"uri":"./MDF_C.jpg"},{"uri":"./american_walnut_crown_cut_Roughness.jpg"},{"uri":"./american_walnut_crown_cut_Base_Color.jpg"},{"uri":"./american_walnut_crown_cut_Roughness0.jpg"}],"samplers":[{"magFilter":9729,"minFilter":9987},{"magFilter":9729,"minFilter":9987,"wrapS":33648}]}