{"asset":{"version":"2.0","generator":"babylon.js glTF exporter for 3dsmax 2020 v20200508.2"},"scene":0,"scenes":[{"nodes":[0,1,3,4,5,6,7,8,9,10,12,13,14,15]}],"nodes":[{"mesh":0,"translation":[1.14125,0.414126575,-0.981547236],"name":"Box053"},{"children":[2],"translation":[-0.966749847,0.290156543,-0.796048],"name":"Gaveta001"},{"mesh":1,"translation":[-1.52587887E-07,0.129046932,-0.007725067],"scale":[0.1,0.1,0.1],"name":"Box034"},{"mesh":2,"translation":[0.7762501,0.2502035,0.610452056],"name":"Box083"},{"mesh":3,"translation":[0.7762501,0.2502035,0.080952],"name":"Box084"},{"mesh":4,"translation":[0.7762501,0.2502035,-0.447547972],"name":"Box085"},{"mesh":5,"translation":[0.7762501,0.2502035,-0.977547944],"name":"Box086"},{"mesh":6,"translation":[-0.6106606,0.007210525,-0.973548055],"name":"Box088"},{"mesh":7,"translation":[0.221250147,0.007210525,0.835452],"name":"Box091"},{"mesh":8,"translation":[-0.231749877,0.007210525,0.835452],"name":"Box092"},{"children":[11],"translation":[-0.7757509,0.281703442,0.992451966],"name":"Barra001"},{"mesh":9,"translation":[-0.0110005187,-0.0100384522,-1.52587887E-07],"rotation":[-4.52377151E-07,-0.7071067,0.7071068,-4.52377066E-07],"scale":[0.1,0.1,0.1],"name":"Box061"},{"mesh":10,"translation":[0.0124770915,-0.02733482,-0.122223191],"scale":[0.71815,1.0,0.9491596],"name":"Cobertor"},{"mesh":11,"translation":[0.0124770915,-0.02733482,-0.122223191],"scale":[0.71815,1.0,0.9491596],"name":"Colchão"},{"mesh":12,"translation":[0.0124770915,-0.02733482,-0.122223191],"scale":[0.71815,1.0,0.9491596],"name":"Lençol"},{"name":"Default light"}],"meshes":[{"primitives":[{"attributes":{"POSITION":1,"NORMAL":2,"TEXCOORD_0":3},"indices":0,"material":0}],"name":"Box053"},{"primitives":[{"attributes":{"POSITION":5,"NORMAL":6,"TEXCOORD_0":7},"indices":4,"material":1}],"name":"Box034"},{"primitives":[{"attributes":{"POSITION":9,"NORMAL":10,"TEXCOORD_0":11},"indices":8,"material":2}],"name":"Box083"},{"primitives":[{"attributes":{"POSITION":13,"NORMAL":14,"TEXCOORD_0":15},"indices":12,"material":2}],"name":"Box084"},{"primitives":[{"attributes":{"POSITION":17,"NORMAL":18,"TEXCOORD_0":19},"indices":16,"material":2}],"name":"Box085"},{"primitives":[{"attributes":{"POSITION":21,"NORMAL":22,"TEXCOORD_0":23},"indices":20,"material":2}],"name":"Box086"},{"primitives":[{"attributes":{"POSITION":25,"NORMAL":26,"TEXCOORD_0":27},"indices":24,"material":1}],"name":"Box088"},{"primitives":[{"attributes":{"POSITION":29,"NORMAL":30,"TEXCOORD_0":31},"indices":28,"material":2}],"name":"Box091"},{"primitives":[{"attributes":{"POSITION":33,"NORMAL":34,"TEXCOORD_0":35},"indices":32,"material":2}],"name":"Box092"},{"primitives":[{"attributes":{"POSITION":37,"NORMAL":38,"TEXCOORD_0":39},"indices":36,"material":3},{"attributes":{"POSITION":41,"NORMAL":42,"TEXCOORD_0":43},"indices":40,"material":0},{"attributes":{"POSITION":45,"NORMAL":46,"TEXCOORD_0":47},"indices":44,"material":1}],"name":"Box061"},{"primitives":[{"attributes":{"POSITION":49,"NORMAL":50,"TEXCOORD_0":51,"TEXCOORD_1":52},"indices":48}],"name":"Cobertor"},{"primitives":[{"attributes":{"POSITION":54,"NORMAL":55,"TEXCOORD_0":56,"TEXCOORD_1":57},"indices":53,"material":4}],"name":"Colchão"},{"primitives":[{"attributes":{"POSITION":59,"NORMAL":60,"TEXCOORD_0":61,"TEXCOORD_1":62},"indices":58}],"name":"Lençol"}],"accessors":[{"bufferView":0,"componentType":5123,"count":132,"type":"SCALAR","name":"accessorIndices"},{"bufferView":1,"componentType":5126,"count":132,"max":[1.66426994E-09,0.0100384224,0.0039994726],"min":[-2.28199983,-0.009961695,-0.00399938971],"type":"VEC3","name":"accessorPositions"},{"bufferView":1,"byteOffset":1584,"componentType":5126,"count":132,"type":"VEC3","name":"accessorNormals"},{"bufferView":2,"componentType":5126,"count":132,"type":"VEC2","name":"accessorUVs"},{"bufferView":0,"byteOffset":264,"componentType":5123,"count":684,"type":"SCALAR","name":"accessorIndices"},{"bufferView":1,"byteOffset":3168,"componentType":5126,"count":684,"max":[21.09,5.375,18.027256],"min":[-1.755,-4.175502,-1.88774729],"type":"VEC3","name":"accessorPositions"},{"bufferView":1,"byteOffset":11376,"componentType":5126,"count":684,"type":"VEC3","name":"accessorNormals"},{"bufferView":2,"byteOffset":1056,"componentType":5126,"count":684,"type":"VEC2","name":"accessorUVs"},{"bufferView":0,"byteOffset":1632,"componentType":5123,"count":36,"type":"SCALAR","name":"accessorIndices"},{"bufferView":1,"byteOffset":19584,"componentType":5126,"count":36,"max":[0.0,0.015,0.383999884],"min":[-1.552,0.0,0.0],"type":"VEC3","name":"accessorPositions"},{"bufferView":1,"byteOffset":20016,"componentType":5126,"count":36,"type":"VEC3","name":"accessorNormals"},{"bufferView":2,"byteOffset":6528,"componentType":5126,"count":36,"type":"VEC2","name":"accessorUVs"},{"bufferView":0,"byteOffset":1704,"componentType":5123,"count":36,"type":"SCALAR","name":"accessorIndices"},{"bufferView":1,"byteOffset":20448,"componentType":5126,"count":36,"max":[0.0,0.015,0.383999884],"min":[-1.552,0.0,0.0],"type":"VEC3","name":"accessorPositions"},{"bufferView":1,"byteOffset":20880,"componentType":5126,"count":36,"type":"VEC3","name":"accessorNormals"},{"bufferView":2,"byteOffset":6816,"componentType":5126,"count":36,"type":"VEC2","name":"accessorUVs"},{"bufferView":0,"byteOffset":1776,"componentType":5123,"count":36,"type":"SCALAR","name":"accessorIndices"},{"bufferView":1,"byteOffset":21312,"componentType":5126,"count":36,"max":[0.0,0.015,0.383999884],"min":[-1.552,0.0,0.0],"type":"VEC3","name":"accessorPositions"},{"bufferView":1,"byteOffset":21744,"componentType":5126,"count":36,"type":"VEC3","name":"accessorNormals"},{"bufferView":2,"byteOffset":7104,"componentType":5126,"count":36,"type":"VEC2","name":"accessorUVs"},{"bufferView":0,"byteOffset":1848,"componentType":5123,"count":36,"type":"SCALAR","name":"accessorIndices"},{"bufferView":1,"byteOffset":22176,"componentType":5126,"count":36,"max":[0.0,0.015,0.383999884],"min":[-1.552,0.0,0.0],"type":"VEC3","name":"accessorPositions"},{"bufferView":1,"byteOffset":22608,"componentType":5126,"count":36,"type":"VEC3","name":"accessorNormals"},{"bufferView":2,"byteOffset":7392,"componentType":5126,"count":36,"type":"VEC2","name":"accessorUVs"},{"bufferView":0,"byteOffset":1920,"componentType":5123,"count":36,"type":"SCALAR","name":"accessorIndices"},{"bufferView":1,"byteOffset":23040,"componentType":5126,"count":36,"max":[1.22791064,0.242992759,0.0109999822],"min":[-0.0060893246,-0.00555707933,-6.624553E-10],"type":"VEC3","name":"accessorPositions"},{"bufferView":1,"byteOffset":23472,"componentType":5126,"count":36,"type":"VEC3","name":"accessorNormals"},{"bufferView":2,"byteOffset":7680,"componentType":5126,"count":36,"type":"VEC2","name":"accessorUVs"},{"bufferView":0,"byteOffset":1992,"componentType":5123,"count":36,"type":"SCALAR","name":"accessorIndices"},{"bufferView":1,"byteOffset":23904,"componentType":5126,"count":36,"max":[0.0110000074,0.242992848,-5.96046434E-10],"min":[-6.62455535E-10,-0.005557081,-1.79799986],"type":"VEC3","name":"accessorPositions"},{"bufferView":1,"byteOffset":24336,"componentType":5126,"count":36,"type":"VEC3","name":"accessorNormals"},{"bufferView":2,"byteOffset":7968,"componentType":5126,"count":36,"type":"VEC2","name":"accessorUVs"},{"bufferView":0,"byteOffset":2064,"componentType":5123,"count":36,"type":"SCALAR","name":"accessorIndices"},{"bufferView":1,"byteOffset":24768,"componentType":5126,"count":36,"max":[0.0110000074,0.242992848,-5.96046434E-10],"min":[-6.62455535E-10,-0.005557081,-1.79799986],"type":"VEC3","name":"accessorPositions"},{"bufferView":1,"byteOffset":25200,"componentType":5126,"count":36,"type":"VEC3","name":"accessorNormals"},{"bufferView":2,"byteOffset":8256,"componentType":5126,"count":36,"type":"VEC2","name":"accessorUVs"},{"bufferView":0,"byteOffset":2136,"componentType":5123,"count":1056,"type":"SCALAR","name":"accessorIndices"},{"bufferView":1,"byteOffset":25632,"componentType":5126,"count":1056,"max":[0.0399968,19.6955166,1.165002],"min":[-15.7800016,-0.121567711,-0.100387275],"type":"VEC3","name":"accessorPositions"},{"bufferView":1,"byteOffset":38304,"componentType":5126,"count":1056,"type":"VEC3","name":"accessorNormals"},{"bufferView":2,"byteOffset":8544,"componentType":5126,"count":1056,"type":"VEC2","name":"accessorUVs"},{"bufferView":0,"byteOffset":4248,"componentType":5123,"count":3036,"type":"SCALAR","name":"accessorIndices"},{"bufferView":1,"byteOffset":50976,"componentType":5126,"count":3036,"max":[3.540011,19.7800083,1.16500211],"min":[-19.27999,-0.121564291,-6.850388],"type":"VEC3","name":"accessorPositions"},{"bufferView":1,"byteOffset":87408,"componentType":5126,"count":3036,"type":"VEC3","name":"accessorNormals"},{"bufferView":2,"byteOffset":16992,"componentType":5126,"count":3036,"type":"VEC2","name":"accessorUVs"},{"bufferView":0,"byteOffset":10320,"componentType":5123,"count":528,"type":"SCALAR","name":"accessorIndices"},{"bufferView":1,"byteOffset":123840,"componentType":5126,"count":528,"max":[3.55500484,16.1499882,1.16499937],"min":[-0.10945709,16.0699959,-0.10038662],"type":"VEC3","name":"accessorPositions"},{"bufferView":1,"byteOffset":130176,"componentType":5126,"count":528,"type":"VEC3","name":"accessorNormals"},{"bufferView":2,"byteOffset":41280,"componentType":5126,"count":528,"type":"VEC2","name":"accessorUVs"},{"bufferView":0,"byteOffset":11376,"componentType":5123,"count":7554,"type":"SCALAR","name":"accessorIndices"},{"bufferView":1,"byteOffset":136512,"componentType":5126,"count":7554,"max":[1.017048,0.5179285,1.103464],"min":[-1.02706385,0.2918641,0.0165021028],"type":"VEC3","name":"accessorPositions"},{"bufferView":1,"byteOffset":227160,"componentType":5126,"count":7554,"type":"VEC3","name":"accessorNormals"},{"bufferView":2,"byteOffset":45504,"componentType":5126,"count":7554,"type":"VEC2","name":"accessorUVs"},{"bufferView":2,"byteOffset":105936,"componentType":5126,"count":7554,"type":"VEC2","name":"accessorUV2s"},{"bufferView":0,"byteOffset":26484,"componentType":5123,"count":3747,"type":"SCALAR","name":"accessorIndices"},{"bufferView":1,"byteOffset":317808,"componentType":5126,"count":3747,"max":[1.004252,0.484790832,-0.320903569],"min":[-1.0036118,0.27643317,-0.8953202],"type":"VEC3","name":"accessorPositions"},{"bufferView":1,"byteOffset":362772,"componentType":5126,"count":3747,"type":"VEC3","name":"accessorNormals"},{"bufferView":2,"byteOffset":166368,"componentType":5126,"count":3747,"type":"VEC2","name":"accessorUVs"},{"bufferView":2,"byteOffset":196344,"componentType":5126,"count":3747,"type":"VEC2","name":"accessorUV2s"},{"bufferView":0,"byteOffset":33980,"componentType":5123,"count":2514,"type":"SCALAR","name":"accessorIndices"},{"bufferView":1,"byteOffset":407736,"componentType":5126,"count":2514,"max":[1.014431,0.508312464,0.08215114],"min":[-1.01890969,0.2883901,-0.4621419],"type":"VEC3","name":"accessorPositions"},{"bufferView":1,"byteOffset":437904,"componentType":5126,"count":2514,"type":"VEC3","name":"accessorNormals"},{"bufferView":2,"byteOffset":226320,"componentType":5126,"count":2514,"type":"VEC2","name":"accessorUVs"},{"bufferView":2,"byteOffset":246432,"componentType":5126,"count":2514,"type":"VEC2","name":"accessorUV2s"}],"bufferViews":[{"buffer":0,"byteLength":39008,"name":"bufferViewScalar"},{"buffer":0,"byteOffset":39008,"byteLength":468072,"byteStride":12,"name":"bufferViewFloatVec3"},{"buffer":0,"byteOffset":507080,"byteLength":266544,"byteStride":8,"name":"bufferViewFloatVec2"}],"buffers":[{"uri":"Cama02.bin","byteLength":773624}],"materials":[{"pbrMetallicRoughness":{"baseColorTexture":{"index":1},"metallicFactor":0.0,"roughnessFactor":0.9},"occlusionTexture":{"index":0},"name":"Carvalho2"},{"pbrMetallicRoughness":{"baseColorTexture":{"index":3},"metallicFactor":0.0,"roughnessFactor":0.9},"occlusionTexture":{"index":2},"name":"Carvalho1"},{"pbrMetallicRoughness":{"baseColorTexture":{"index":4},"metallicFactor":0.0,"roughnessFactor":0.6},"name":"MAD_MDF"},{"pbrMetallicRoughness":{"baseColorTexture":{"index":3},"metallicRoughnessTexture":{"index":5}},"name":"Carvalho 01"},{"pbrMetallicRoughness":{"baseColorFactor":[0.5819608,0.5819608,0.5819608,1.0],"metallicFactor":0.0,"roughnessFactor":0.599999964},"name":"Colchao"}],"textures":[{"sampler":0,"source":0,"name":"american_walnut_crown_cut_Roughness_2.jpg"},{"sampler":0,"source":1,"name":"american_walnut_crown_cut_Base_Color_2.jpg"},{"sampler":0,"source":2,"name":"american_walnut_crown_cut_Roughness.jpg"},{"sampler":0,"source":3,"name":"american_walnut_crown_cut_Base_Color.jpg"},{"sampler":0,"source":4,"name":"MDF_C.jpg"},{"sampler":1,"source":5,"name":"american_walnut_crown_cut_Roughness0.jpg"}],"images":[{"uri":"./american_walnut_crown_cut_Roughness_2.jpg"},{"uri":"./american_walnut_crown_cut_Base_Color_2.jpg"},{"uri":"./american_walnut_crown_cut_Roughness.jpg"},{"uri":"./american_walnut_crown_cut_Base_Color.jpg"},{"uri":"./MDF_C.jpg"},{"uri":"./american_walnut_crown_cut_Roughness0.jpg"}],"samplers":[{"magFilter":9729,"minFilter":9987},{"magFilter":9729,"minFilter":9987,"wrapS":33648}]}