{"asset":{"version":"2.0","generator":"babylon.js glTF exporter for 3dsmax 2020 v20200508.2"},"scene":0,"scenes":[{"nodes":[0,1]}],"nodes":[{"mesh":0,"translation":[0.0124770915,-0.02733482,-0.122223191],"scale":[0.71815,1.0,0.9491596],"name":"Colchão"},{"name":"Default light"}],"meshes":[{"primitives":[{"attributes":{"POSITION":1,"NORMAL":2,"TEXCOORD_0":3,"TEXCOORD_1":4},"indices":0,"material":0}],"name":"Colchão"}],"accessors":[{"bufferView":0,"componentType":5123,"count":3747,"type":"SCALAR","name":"accessorIndices"},{"bufferView":1,"componentType":5126,"count":3747,"max":[1.004252,0.484790832,-0.320903569],"min":[-1.0036118,0.27643317,-0.8953202],"type":"VEC3","name":"accessorPositions"},{"bufferView":1,"byteOffset":44964,"componentType":5126,"count":3747,"type":"VEC3","name":"accessorNormals"},{"bufferView":2,"componentType":5126,"count":3747,"type":"VEC2","name":"accessorUVs"},{"bufferView":2,"byteOffset":29976,"componentType":5126,"count":3747,"type":"VEC2","name":"accessorUV2s"}],"bufferViews":[{"buffer":0,"byteLength":7496,"name":"bufferViewScalar"},{"buffer":0,"byteOffset":7496,"byteLength":89928,"byteStride":12,"name":"bufferViewFloatVec3"},{"buffer":0,"byteOffset":97424,"byteLength":59952,"byteStride":8,"name":"bufferViewFloatVec2"}],"buffers":[{"uri":"Cama02.bin","byteLength":157376}],"materials":[{"pbrMetallicRoughness":{"baseColorFactor":[0.5819608,0.5819608,0.5819608,1.0],"metallicFactor":0.0,"roughnessFactor":0.599999964},"name":"Colchao"}]}