{"asset":{"version":"2.0","generator":"babylon.js glTF exporter for 3dsmax 2020 v20200508.2"},"scene":0,"scenes":[{"nodes":[0,3,4,5,6,7]}],"nodes":[{"children":[1],"translation":[1.174748,0.0,-0.9814155],"rotation":[0.0,-1.0,0.0,-4.371139E-08],"scale":[1.0,1.0,0.912469149],"name":"Component_29"},{"children":[2],"translation":[1.942252,0.0,-0.0012464904],"rotation":[0.0,0.7071068,0.0,0.7071067],"name":"Component#4 [174245]"},{"translation":[0.903862834,0.5629399,-0.754596055],"rotation":[5.27949944E-22,0.7071068,-4.98372377E-20,0.7071067],"scale":[0.99999994,1.0,0.99999994],"name":"marylin 3d#1 [174224]"},{"mesh":0,"translation":[0.0124770915,-0.02733482,-0.122223191],"scale":[0.71815,1.0,0.9491596],"name":"Cobertor"},{"mesh":1,"translation":[0.09168674,0.4555085,-0.09649559],"scale":[0.8311343,0.8311343,0.8311343],"name":"poliform_onda_01_pillows"},{"mesh":2,"translation":[0.0124770915,-0.02733482,-0.122223191],"scale":[0.71815,1.0,0.9491596],"name":"Lençol"},{"mesh":3,"translation":[0.0149466321,0.0,-0.725385964],"name":"Box093"},{"name":"Default light"}],"meshes":[{"primitives":[{"attributes":{"POSITION":1,"NORMAL":2,"TEXCOORD_0":3,"TEXCOORD_1":4},"indices":0}],"name":"Cobertor"},{"primitives":[{"attributes":{"POSITION":6,"NORMAL":7,"TEXCOORD_0":8},"indices":5}],"name":"poliform_onda_01_pillows"},{"primitives":[{"attributes":{"POSITION":10,"NORMAL":11,"TEXCOORD_0":12,"TEXCOORD_1":13},"indices":9}],"name":"Lençol"},{"primitives":[{"attributes":{"POSITION":15,"NORMAL":16,"TEXCOORD_0":17},"indices":14,"material":0}],"name":"Box093"}],"accessors":[{"bufferView":0,"componentType":5123,"count":7554,"type":"SCALAR","name":"accessorIndices"},{"bufferView":1,"componentType":5126,"count":7554,"max":[1.017048,0.5179285,1.103464],"min":[-1.02706385,0.2918641,0.0165021028],"type":"VEC3","name":"accessorPositions"},{"bufferView":1,"byteOffset":90648,"componentType":5126,"count":7554,"type":"VEC3","name":"accessorNormals"},{"bufferView":2,"componentType":5126,"count":7554,"type":"VEC2","name":"accessorUVs"},{"bufferView":2,"byteOffset":60432,"componentType":5126,"count":7554,"type":"VEC2","name":"accessorUV2s"},{"bufferView":0,"byteOffset":15108,"componentType":5123,"count":12114,"type":"SCALAR","name":"accessorIndices"},{"bufferView":1,"byteOffset":181296,"componentType":5126,"count":12114,"max":[0.648430645,0.2601432,-0.485975742],"min":[-0.926586568,-0.0102257151,-1.064012],"type":"VEC3","name":"accessorPositions"},{"bufferView":1,"byteOffset":326664,"componentType":5126,"count":12114,"type":"VEC3","name":"accessorNormals"},{"bufferView":2,"byteOffset":120864,"componentType":5126,"count":12114,"type":"VEC2","name":"accessorUVs"},{"bufferView":0,"byteOffset":39336,"componentType":5123,"count":2514,"type":"SCALAR","name":"accessorIndices"},{"bufferView":1,"byteOffset":472032,"componentType":5126,"count":2514,"max":[1.014431,0.508312464,0.08215114],"min":[-1.01890969,0.2883901,-0.4621419],"type":"VEC3","name":"accessorPositions"},{"bufferView":1,"byteOffset":502200,"componentType":5126,"count":2514,"type":"VEC3","name":"accessorNormals"},{"bufferView":2,"byteOffset":217776,"componentType":5126,"count":2514,"type":"VEC2","name":"accessorUVs"},{"bufferView":2,"byteOffset":237888,"componentType":5126,"count":2514,"type":"VEC2","name":"accessorUV2s"},{"bufferView":0,"byteOffset":44364,"componentType":5123,"count":1044,"type":"SCALAR","name":"accessorIndices"},{"bufferView":1,"byteOffset":532368,"componentType":5126,"count":1044,"max":[0.6952295,0.45475778,0.2451007],"min":[-0.7119462,0.27106142,-0.2451007],"type":"VEC3","name":"accessorPositions"},{"bufferView":1,"byteOffset":544896,"componentType":5126,"count":1044,"type":"VEC3","name":"accessorNormals"},{"bufferView":2,"byteOffset":258000,"componentType":5126,"count":1044,"type":"VEC2","name":"accessorUVs"}],"bufferViews":[{"buffer":0,"byteLength":46452,"name":"bufferViewScalar"},{"buffer":0,"byteOffset":46452,"byteLength":557424,"byteStride":12,"name":"bufferViewFloatVec3"},{"buffer":0,"byteOffset":603876,"byteLength":266352,"byteStride":8,"name":"bufferViewFloatVec2"}],"buffers":[{"uri":"Cama02.bin","byteLength":870228}],"materials":[{"pbrMetallicRoughness":{"baseColorFactor":[0.5819608,0.5819608,0.5819608,1.0],"metallicFactor":0.0,"roughnessFactor":0.599999964},"name":"Colchao"}]}