{"asset":{"version":"2.0","generator":"babylon.js glTF exporter for 3dsmax 2020 v20200508.2"},"scene":0,"scenes":[{"nodes":[0,1]}],"nodes":[{"mesh":0,"translation":[0.0124770915,-0.02733482,-0.122223191],"scale":[0.71815,1.0,0.9491596],"name":"Colchão"},{"name":"Default light"}],"meshes":[{"primitives":[{"attributes":{"POSITION":1,"NORMAL":2,"TEXCOORD_0":3,"TEXCOORD_1":4},"indices":0,"material":0},{"attributes":{"POSITION":6,"NORMAL":7,"TEXCOORD_0":8,"TEXCOORD_1":9},"indices":5,"material":1},{"attributes":{"POSITION":11,"NORMAL":12,"TEXCOORD_0":13,"TEXCOORD_1":14},"indices":10,"material":2}],"name":"Colchão"}],"accessors":[{"bufferView":0,"componentType":5123,"count":1056,"type":"SCALAR","name":"accessorIndices"},{"bufferView":1,"componentType":5126,"count":1056,"max":[1.08441758,0.309038222,1.18718886],"min":[-1.11846507,0.1824996,-0.900665164],"type":"VEC3","name":"accessorPositions"},{"bufferView":1,"byteOffset":12672,"componentType":5126,"count":1056,"type":"VEC3","name":"accessorNormals"},{"bufferView":2,"componentType":5126,"count":1056,"type":"VEC2","name":"accessorUVs"},{"bufferView":2,"byteOffset":8448,"componentType":5126,"count":1056,"type":"VEC2","name":"accessorUV2s"},{"bufferView":0,"byteOffset":2112,"componentType":5123,"count":3036,"type":"SCALAR","name":"accessorIndices"},{"bufferView":1,"byteOffset":25344,"componentType":5126,"count":3036,"max":[1.57177913,0.9840383,1.1871891],"min":[-1.60583031,0.182499617,-0.9095661],"type":"VEC3","name":"accessorPositions"},{"bufferView":1,"byteOffset":61776,"componentType":5126,"count":3036,"type":"VEC3","name":"accessorNormals"},{"bufferView":2,"byteOffset":16896,"componentType":5126,"count":3036,"type":"VEC2","name":"accessorUVs"},{"bufferView":2,"byteOffset":41184,"componentType":5126,"count":3036,"type":"VEC2","name":"accessorUV2s"},{"bufferView":0,"byteOffset":8184,"componentType":5123,"count":1212,"type":"SCALAR","name":"accessorIndices"},{"bufferView":1,"byteOffset":98208,"componentType":5126,"count":1212,"max":[1.57317138,0.9840383,1.18123007],"min":[-1.6079191,0.02898815,-0.9169423],"type":"VEC3","name":"accessorPositions"},{"bufferView":1,"byteOffset":112752,"componentType":5126,"count":1212,"type":"VEC3","name":"accessorNormals"},{"bufferView":2,"byteOffset":65472,"componentType":5126,"count":1212,"type":"VEC2","name":"accessorUVs"},{"bufferView":2,"byteOffset":75168,"componentType":5126,"count":1212,"type":"VEC2","name":"accessorUV2s"}],"bufferViews":[{"buffer":0,"byteLength":10608,"name":"bufferViewScalar"},{"buffer":0,"byteOffset":10608,"byteLength":127296,"byteStride":12,"name":"bufferViewFloatVec3"},{"buffer":0,"byteOffset":137904,"byteLength":84864,"byteStride":8,"name":"bufferViewFloatVec2"}],"buffers":[{"uri":"Cama02.bin","byteLength":222768}],"materials":[{"pbrMetallicRoughness":{"baseColorTexture":{"index":0},"metallicRoughnessTexture":{"index":1}},"name":"Carvalho 01"},{"pbrMetallicRoughness":{"baseColorTexture":{"index":3},"metallicFactor":0.0,"roughnessFactor":0.9},"occlusionTexture":{"index":2},"name":"Carvalho2"},{"pbrMetallicRoughness":{"baseColorTexture":{"index":0},"metallicFactor":0.0,"roughnessFactor":0.9},"occlusionTexture":{"index":4},"name":"Carvalho1"}],"textures":[{"sampler":0,"source":0,"name":"american_walnut_crown_cut_Base_Color.jpg"},{"sampler":1,"source":1,"name":"american_walnut_crown_cut_Roughness0.jpg"},{"sampler":0,"source":2,"name":"american_walnut_crown_cut_Roughness_2.jpg"},{"sampler":0,"source":3,"name":"american_walnut_crown_cut_Base_Color_2.jpg"},{"sampler":0,"source":4,"name":"american_walnut_crown_cut_Roughness.jpg"}],"images":[{"uri":"./american_walnut_crown_cut_Base_Color.jpg"},{"uri":"./american_walnut_crown_cut_Roughness0.jpg"},{"uri":"./american_walnut_crown_cut_Roughness_2.jpg"},{"uri":"./american_walnut_crown_cut_Base_Color_2.jpg"},{"uri":"./american_walnut_crown_cut_Roughness.jpg"}],"samplers":[{"magFilter":9729,"minFilter":9987},{"magFilter":9729,"minFilter":9987,"wrapS":33648}]}