{"asset":{"version":"2.0","generator":"babylon.js glTF exporter for 3dsmax 2020 v20200508.2"},"scene":0,"scenes":[{"nodes":[0,1,2,3,4,5,7,8,9,10,11,12,13,14,16,17,18,19,20,21,22,23]}],"nodes":[{"mesh":0,"translation":[1.100578,0.9522534,-1.000423],"scale":[0.1,0.1,0.1],"name":"Box026"},{"mesh":1,"translation":[0.616827965,0.8636407,-1.00754821],"scale":[0.1,0.1,0.1],"name":"Box027"},{"mesh":2,"translation":[0.0346875,0.8636407,-1.00754821],"scale":[0.1,0.1,0.1],"name":"Box028"},{"mesh":3,"translation":[-0.5467499,0.8636407,-1.00754821],"scale":[0.1,0.1,0.1],"name":"Box029"},{"mesh":4,"translation":[-1.06538761,0.8636407,-1.00754821],"scale":[0.1,0.1,0.1],"name":"Box030"},{"children":[6],"translation":[-0.966749847,0.290156543,-0.796048],"name":"Gaveta001"},{"mesh":5,"translation":[-1.52587887E-07,0.129046932,-0.007725067],"scale":[0.1,0.1,0.1],"name":"Box034"},{"mesh":6,"translation":[0.7762501,0.2502035,0.610452056],"name":"Box083"},{"mesh":7,"translation":[0.7762501,0.2502035,0.080952],"name":"Box084"},{"mesh":8,"translation":[0.7762501,0.2502035,-0.447547972],"name":"Box085"},{"mesh":9,"translation":[0.7762501,0.2502035,-0.977547944],"name":"Box086"},{"mesh":10,"translation":[-0.6106606,0.007210525,-0.973548055],"name":"Box088"},{"mesh":11,"translation":[0.221250147,0.007210525,0.835452],"name":"Box091"},{"mesh":12,"translation":[-0.231749877,0.007210525,0.835452],"name":"Box092"},{"children":[15],"translation":[-0.7757509,0.281703442,0.992451966],"name":"Barra001"},{"mesh":13,"translation":[-0.0110005187,-0.0100384522,-1.52587887E-07],"rotation":[-4.52377151E-07,-0.7071067,0.7071068,-4.52377066E-07],"scale":[0.1,0.1,0.1],"name":"Box061"},{"mesh":14,"translation":[-0.78675133,0.210664928,-0.622547],"rotation":[-4.74853636E-07,-0.7071067,0.7071068,-4.74853579E-07],"scale":[0.1,0.1,0.1],"name":"Object001"},{"mesh":15,"translation":[-0.78675133,0.175164729,-0.622547],"rotation":[-4.74853636E-07,-0.7071067,0.7071068,-4.74853579E-07],"scale":[0.1,0.1,0.1],"name":"Object002"},{"mesh":16,"translation":[-0.78675133,0.281703144,-0.6225469],"rotation":[-4.74853636E-07,-0.7071067,0.7071068,-4.74853579E-07],"scale":[0.1,0.1,0.1],"name":"Object004"},{"mesh":17,"translation":[-0.78675133,0.2461648,-0.6225469],"rotation":[-4.74853636E-07,-0.7071067,0.7071068,-4.74853579E-07],"scale":[0.1,0.1,0.1],"name":"Object005"},{"mesh":18,"translation":[-0.78675133,0.210664913,-0.6225469],"rotation":[-4.74853636E-07,-0.7071067,0.7071068,-4.74853579E-07],"scale":[0.1,0.1,0.1],"name":"Object006"},{"mesh":19,"translation":[-0.78675133,0.175165042,-0.6225469],"rotation":[-4.74853636E-07,-0.7071067,0.7071068,-4.74853579E-07],"scale":[0.1,0.1,0.1],"name":"Object007"},{"mesh":20,"translation":[-0.7867514,0.271665,0.992451847],"rotation":[-4.74853636E-07,-0.7071067,0.7071068,-4.74853579E-07],"scale":[0.1,0.1,0.1],"name":"Object008"},{"name":"Default light"}],"meshes":[{"primitives":[{"attributes":{"POSITION":1,"NORMAL":2,"TEXCOORD_0":3},"indices":0,"material":0}],"name":"Box026"},{"primitives":[{"attributes":{"POSITION":5,"NORMAL":6,"TEXCOORD_0":7},"indices":4,"material":0}],"name":"Box027"},{"primitives":[{"attributes":{"POSITION":9,"NORMAL":10,"TEXCOORD_0":11},"indices":8,"material":0}],"name":"Box028"},{"primitives":[{"attributes":{"POSITION":13,"NORMAL":14,"TEXCOORD_0":15},"indices":12,"material":0}],"name":"Box029"},{"primitives":[{"attributes":{"POSITION":17,"NORMAL":18,"TEXCOORD_0":19},"indices":16,"material":0}],"name":"Box030"},{"primitives":[{"attributes":{"POSITION":21,"NORMAL":22,"TEXCOORD_0":23},"indices":20,"material":0}],"name":"Box034"},{"primitives":[{"attributes":{"POSITION":25,"NORMAL":26,"TEXCOORD_0":27},"indices":24,"material":0}],"name":"Box083"},{"primitives":[{"attributes":{"POSITION":29,"NORMAL":30,"TEXCOORD_0":31},"indices":28,"material":0}],"name":"Box084"},{"primitives":[{"attributes":{"POSITION":33,"NORMAL":34,"TEXCOORD_0":35},"indices":32,"material":0}],"name":"Box085"},{"primitives":[{"attributes":{"POSITION":37,"NORMAL":38,"TEXCOORD_0":39},"indices":36,"material":0}],"name":"Box086"},{"primitives":[{"attributes":{"POSITION":41,"NORMAL":42,"TEXCOORD_0":43},"indices":40,"material":0}],"name":"Box088"},{"primitives":[{"attributes":{"POSITION":45,"NORMAL":46,"TEXCOORD_0":47},"indices":44,"material":0}],"name":"Box091"},{"primitives":[{"attributes":{"POSITION":49,"NORMAL":50,"TEXCOORD_0":51},"indices":48,"material":0}],"name":"Box092"},{"primitives":[{"attributes":{"POSITION":53,"NORMAL":54,"TEXCOORD_0":55},"indices":52,"material":1}],"name":"Box061"},{"primitives":[{"attributes":{"POSITION":57,"NORMAL":58,"TEXCOORD_0":59},"indices":56,"material":1}],"name":"Object001"},{"primitives":[{"attributes":{"POSITION":61,"NORMAL":62,"TEXCOORD_0":63},"indices":60,"material":1}],"name":"Object002"},{"primitives":[{"attributes":{"POSITION":65,"NORMAL":66,"TEXCOORD_0":67},"indices":64,"material":1}],"name":"Object004"},{"primitives":[{"attributes":{"POSITION":69,"NORMAL":70,"TEXCOORD_0":71},"indices":68,"material":1}],"name":"Object005"},{"primitives":[{"attributes":{"POSITION":73,"NORMAL":74,"TEXCOORD_0":75},"indices":72,"material":1}],"name":"Object006"},{"primitives":[{"attributes":{"POSITION":77,"NORMAL":78,"TEXCOORD_0":79},"indices":76,"material":1}],"name":"Object007"},{"primitives":[{"attributes":{"POSITION":81,"NORMAL":82,"TEXCOORD_0":83},"indices":80,"material":1}],"name":"Object008"}],"accessors":[{"bufferView":0,"componentType":5123,"count":36,"type":"SCALAR","name":"accessorIndices"},{"bufferView":1,"componentType":5126,"count":36,"max":[0.333781719,0.0,0.07031189],"min":[-0.333781719,-7.94099855,-0.07031189],"type":"VEC3","name":"accessorPositions"},{"bufferView":1,"byteOffset":432,"componentType":5126,"count":36,"type":"VEC3","name":"accessorNormals"},{"bufferView":2,"componentType":5126,"count":36,"type":"VEC2","name":"accessorUVs"},{"bufferView":0,"byteOffset":72,"componentType":5123,"count":36,"type":"SCALAR","name":"accessorIndices"},{"bufferView":1,"byteOffset":864,"componentType":5126,"count":36,"max":[-0.0120001221,0.001875,0.141563714],"min":[-0.6795636,-7.05487347,0.0009399414],"type":"VEC3","name":"accessorPositions"},{"bufferView":1,"byteOffset":1296,"componentType":5126,"count":36,"type":"VEC3","name":"accessorNormals"},{"bufferView":2,"byteOffset":288,"componentType":5126,"count":36,"type":"VEC2","name":"accessorUVs"},{"bufferView":0,"byteOffset":144,"componentType":5123,"count":36,"type":"SCALAR","name":"accessorIndices"},{"bufferView":1,"byteOffset":1728,"componentType":5126,"count":36,"max":[-0.0120001221,0.001875,0.141563714],"min":[-0.6795636,-7.05487347,0.0009399414],"type":"VEC3","name":"accessorPositions"},{"bufferView":1,"byteOffset":2160,"componentType":5126,"count":36,"type":"VEC3","name":"accessorNormals"},{"bufferView":2,"byteOffset":576,"componentType":5126,"count":36,"type":"VEC2","name":"accessorUVs"},{"bufferView":0,"byteOffset":216,"componentType":5123,"count":36,"type":"SCALAR","name":"accessorIndices"},{"bufferView":1,"byteOffset":2592,"componentType":5126,"count":36,"max":[-0.0120001221,0.001875,0.141563714],"min":[-0.6795636,-7.05487347,0.0009399414],"type":"VEC3","name":"accessorPositions"},{"bufferView":1,"byteOffset":3024,"componentType":5126,"count":36,"type":"VEC3","name":"accessorNormals"},{"bufferView":2,"byteOffset":864,"componentType":5126,"count":36,"type":"VEC2","name":"accessorUVs"},{"bufferView":0,"byteOffset":288,"componentType":5123,"count":36,"type":"SCALAR","name":"accessorIndices"},{"bufferView":1,"byteOffset":3456,"componentType":5126,"count":36,"max":[-0.0120001221,0.897374868,0.141563714],"min":[-0.6795636,-7.05487347,0.0009399414],"type":"VEC3","name":"accessorPositions"},{"bufferView":1,"byteOffset":3888,"componentType":5126,"count":36,"type":"VEC3","name":"accessorNormals"},{"bufferView":2,"byteOffset":1152,"componentType":5126,"count":36,"type":"VEC2","name":"accessorUVs"},{"bufferView":0,"byteOffset":360,"componentType":5123,"count":684,"type":"SCALAR","name":"accessorIndices"},{"bufferView":1,"byteOffset":4320,"componentType":5126,"count":684,"max":[21.09,5.375,18.027256],"min":[-1.755,-4.175502,-1.88774729],"type":"VEC3","name":"accessorPositions"},{"bufferView":1,"byteOffset":12528,"componentType":5126,"count":684,"type":"VEC3","name":"accessorNormals"},{"bufferView":2,"byteOffset":1440,"componentType":5126,"count":684,"type":"VEC2","name":"accessorUVs"},{"bufferView":0,"byteOffset":1728,"componentType":5123,"count":36,"type":"SCALAR","name":"accessorIndices"},{"bufferView":1,"byteOffset":20736,"componentType":5126,"count":36,"max":[0.0,0.015,0.383999884],"min":[-1.552,0.0,0.0],"type":"VEC3","name":"accessorPositions"},{"bufferView":1,"byteOffset":21168,"componentType":5126,"count":36,"type":"VEC3","name":"accessorNormals"},{"bufferView":2,"byteOffset":6912,"componentType":5126,"count":36,"type":"VEC2","name":"accessorUVs"},{"bufferView":0,"byteOffset":1800,"componentType":5123,"count":36,"type":"SCALAR","name":"accessorIndices"},{"bufferView":1,"byteOffset":21600,"componentType":5126,"count":36,"max":[0.0,0.015,0.383999884],"min":[-1.552,0.0,0.0],"type":"VEC3","name":"accessorPositions"},{"bufferView":1,"byteOffset":22032,"componentType":5126,"count":36,"type":"VEC3","name":"accessorNormals"},{"bufferView":2,"byteOffset":7200,"componentType":5126,"count":36,"type":"VEC2","name":"accessorUVs"},{"bufferView":0,"byteOffset":1872,"componentType":5123,"count":36,"type":"SCALAR","name":"accessorIndices"},{"bufferView":1,"byteOffset":22464,"componentType":5126,"count":36,"max":[0.0,0.015,0.383999884],"min":[-1.552,0.0,0.0],"type":"VEC3","name":"accessorPositions"},{"bufferView":1,"byteOffset":22896,"componentType":5126,"count":36,"type":"VEC3","name":"accessorNormals"},{"bufferView":2,"byteOffset":7488,"componentType":5126,"count":36,"type":"VEC2","name":"accessorUVs"},{"bufferView":0,"byteOffset":1944,"componentType":5123,"count":36,"type":"SCALAR","name":"accessorIndices"},{"bufferView":1,"byteOffset":23328,"componentType":5126,"count":36,"max":[0.0,0.015,0.383999884],"min":[-1.552,0.0,0.0],"type":"VEC3","name":"accessorPositions"},{"bufferView":1,"byteOffset":23760,"componentType":5126,"count":36,"type":"VEC3","name":"accessorNormals"},{"bufferView":2,"byteOffset":7776,"componentType":5126,"count":36,"type":"VEC2","name":"accessorUVs"},{"bufferView":0,"byteOffset":2016,"componentType":5123,"count":36,"type":"SCALAR","name":"accessorIndices"},{"bufferView":1,"byteOffset":24192,"componentType":5126,"count":36,"max":[1.22791064,0.242992759,0.0109999822],"min":[-0.0060893246,-0.00555707933,-6.624553E-10],"type":"VEC3","name":"accessorPositions"},{"bufferView":1,"byteOffset":24624,"componentType":5126,"count":36,"type":"VEC3","name":"accessorNormals"},{"bufferView":2,"byteOffset":8064,"componentType":5126,"count":36,"type":"VEC2","name":"accessorUVs"},{"bufferView":0,"byteOffset":2088,"componentType":5123,"count":36,"type":"SCALAR","name":"accessorIndices"},{"bufferView":1,"byteOffset":25056,"componentType":5126,"count":36,"max":[0.0110000074,0.242992848,-5.96046434E-10],"min":[-6.62455535E-10,-0.005557081,-1.79799986],"type":"VEC3","name":"accessorPositions"},{"bufferView":1,"byteOffset":25488,"componentType":5126,"count":36,"type":"VEC3","name":"accessorNormals"},{"bufferView":2,"byteOffset":8352,"componentType":5126,"count":36,"type":"VEC2","name":"accessorUVs"},{"bufferView":0,"byteOffset":2160,"componentType":5123,"count":36,"type":"SCALAR","name":"accessorIndices"},{"bufferView":1,"byteOffset":25920,"componentType":5126,"count":36,"max":[0.0110000074,0.242992848,-5.96046434E-10],"min":[-6.62455535E-10,-0.005557081,-1.79799986],"type":"VEC3","name":"accessorPositions"},{"bufferView":1,"byteOffset":26352,"componentType":5126,"count":36,"type":"VEC3","name":"accessorNormals"},{"bufferView":2,"byteOffset":8640,"componentType":5126,"count":36,"type":"VEC2","name":"accessorUVs"},{"bufferView":0,"byteOffset":2232,"componentType":5123,"count":1848,"type":"SCALAR","name":"accessorIndices"},{"bufferView":1,"byteOffset":26784,"componentType":5126,"count":1848,"max":[3.55500484,19.6955166,1.16500211],"min":[-15.7800016,-0.121567711,-0.100387275],"type":"VEC3","name":"accessorPositions"},{"bufferView":1,"byteOffset":48960,"componentType":5126,"count":1848,"type":"VEC3","name":"accessorNormals"},{"bufferView":2,"byteOffset":8928,"componentType":5126,"count":1848,"type":"VEC2","name":"accessorUVs"},{"bufferView":0,"byteOffset":5928,"componentType":5123,"count":132,"type":"SCALAR","name":"accessorIndices"},{"bufferView":1,"byteOffset":71136,"componentType":5126,"count":132,"max":[3.55498385,-1.2207031E-06,0.199999616],"min":[-0.109478071,-0.0799926743,-2.59399417E-06],"type":"VEC3","name":"accessorPositions"},{"bufferView":1,"byteOffset":72720,"componentType":5126,"count":132,"type":"VEC3","name":"accessorNormals"},{"bufferView":2,"byteOffset":23712,"componentType":5126,"count":132,"type":"VEC2","name":"accessorUVs"},{"bufferView":0,"byteOffset":6192,"componentType":5123,"count":132,"type":"SCALAR","name":"accessorIndices"},{"bufferView":1,"byteOffset":74304,"componentType":5126,"count":132,"max":[3.55498385,-1.2207031E-06,0.199999616],"min":[-0.109478071,-0.0799926743,-2.59399417E-06],"type":"VEC3","name":"accessorPositions"},{"bufferView":1,"byteOffset":75888,"componentType":5126,"count":132,"type":"VEC3","name":"accessorNormals"},{"bufferView":2,"byteOffset":24768,"componentType":5126,"count":132,"type":"VEC2","name":"accessorUVs"},{"bufferView":0,"byteOffset":6456,"componentType":5123,"count":132,"type":"SCALAR","name":"accessorIndices"},{"bufferView":1,"byteOffset":77472,"componentType":5126,"count":132,"max":[-15.6150274,2.4414061E-05,0.1999995],"min":[-19.27949,-0.07996704,-2.5749207E-06],"type":"VEC3","name":"accessorPositions"},{"bufferView":1,"byteOffset":79056,"componentType":5126,"count":132,"type":"VEC3","name":"accessorNormals"},{"bufferView":2,"byteOffset":25824,"componentType":5126,"count":132,"type":"VEC2","name":"accessorUVs"},{"bufferView":0,"byteOffset":6720,"componentType":5123,"count":132,"type":"SCALAR","name":"accessorIndices"},{"bufferView":1,"byteOffset":80640,"componentType":5126,"count":132,"max":[-15.6150274,2.4414061E-05,0.1999995],"min":[-19.27949,-0.07996704,-2.5749207E-06],"type":"VEC3","name":"accessorPositions"},{"bufferView":1,"byteOffset":82224,"componentType":5126,"count":132,"type":"VEC3","name":"accessorNormals"},{"bufferView":2,"byteOffset":26880,"componentType":5126,"count":132,"type":"VEC2","name":"accessorUVs"},{"bufferView":0,"byteOffset":6984,"componentType":5123,"count":132,"type":"SCALAR","name":"accessorIndices"},{"bufferView":1,"byteOffset":83808,"componentType":5126,"count":132,"max":[-15.6150274,2.4414061E-05,0.1999995],"min":[-19.27949,-0.07996704,-2.5749207E-06],"type":"VEC3","name":"accessorPositions"},{"bufferView":1,"byteOffset":85392,"componentType":5126,"count":132,"type":"VEC3","name":"accessorNormals"},{"bufferView":2,"byteOffset":27936,"componentType":5126,"count":132,"type":"VEC2","name":"accessorUVs"},{"bufferView":0,"byteOffset":7248,"componentType":5123,"count":132,"type":"SCALAR","name":"accessorIndices"},{"bufferView":1,"byteOffset":86976,"componentType":5126,"count":132,"max":[-15.6150274,2.4414061E-05,0.1999995],"min":[-19.27949,-0.07996704,-2.5749207E-06],"type":"VEC3","name":"accessorPositions"},{"bufferView":1,"byteOffset":88560,"componentType":5126,"count":132,"type":"VEC3","name":"accessorNormals"},{"bufferView":2,"byteOffset":28992,"componentType":5126,"count":132,"type":"VEC2","name":"accessorUVs"},{"bufferView":0,"byteOffset":7512,"componentType":5123,"count":1980,"type":"SCALAR","name":"accessorIndices"},{"bufferView":1,"byteOffset":90144,"componentType":5126,"count":1980,"max":[3.540011,19.7800083,-1.68000245],"min":[-19.27999,19.69999,-6.850388],"type":"VEC3","name":"accessorPositions"},{"bufferView":1,"byteOffset":113904,"componentType":5126,"count":1980,"type":"VEC3","name":"accessorNormals"},{"bufferView":2,"byteOffset":30048,"componentType":5126,"count":1980,"type":"VEC2","name":"accessorUVs"}],"bufferViews":[{"buffer":0,"byteLength":11472,"name":"bufferViewScalar"},{"buffer":0,"byteOffset":11472,"byteLength":137664,"byteStride":12,"name":"bufferViewFloatVec3"},{"buffer":0,"byteOffset":149136,"byteLength":45888,"byteStride":8,"name":"bufferViewFloatVec2"}],"buffers":[{"uri":"Cama.bin","byteLength":195024}],"materials":[{"pbrMetallicRoughness":{"baseColorTexture":{"index":0},"metallicFactor":0.0,"roughnessFactor":0.6},"name":"MAD_MDF"},{"pbrMetallicRoughness":{"baseColorTexture":{"index":2},"metallicFactor":0.0,"roughnessFactor":0.9},"occlusionTexture":{"index":1},"name":"Carvalho1"}],"textures":[{"sampler":0,"source":0,"name":"MDF_C.jpg"},{"sampler":0,"source":1,"name":"american_walnut_crown_cut_Roughness.jpg"},{"sampler":0,"source":2,"name":"american_walnut_crown_cut_Base_Color.jpg"}],"images":[{"uri":"./MDF_C.jpg"},{"uri":"./american_walnut_crown_cut_Roughness.jpg"},{"uri":"./american_walnut_crown_cut_Base_Color.jpg"}],"samplers":[{"magFilter":9729,"minFilter":9987}]}