{"asset":{"version":"2.0","generator":"babylon.js glTF exporter for 3dsmax 2020 v20200508.2"},"scene":0,"scenes":[{"nodes":[0,1,2,3,4,5,6,8,9,10,11,12,13,14,15,17,20,21]}],"nodes":[{"mesh":0,"translation":[1.100578,0.9522534,-1.000423],"scale":[0.1,0.1,0.1],"name":"Box026"},{"mesh":1,"translation":[0.616827965,0.8636407,-1.00754821],"scale":[0.1,0.1,0.1],"name":"Box027"},{"mesh":2,"translation":[0.0346875,0.8636407,-1.00754821],"scale":[0.1,0.1,0.1],"name":"Box028"},{"mesh":3,"translation":[-0.5467499,0.8636407,-1.00754821],"scale":[0.1,0.1,0.1],"name":"Box029"},{"mesh":4,"translation":[-1.06538761,0.8636407,-1.00754821],"scale":[0.1,0.1,0.1],"name":"Box030"},{"mesh":5,"translation":[1.14125,0.414126575,-0.981547236],"name":"Box053"},{"children":[7],"translation":[-0.966749847,0.290156543,-0.796048],"name":"Gaveta001"},{"mesh":6,"translation":[-1.52587887E-07,0.129046932,-0.007725067],"scale":[0.1,0.1,0.1],"name":"Box034"},{"mesh":7,"translation":[0.7762501,0.2502035,0.610452056],"name":"Box083"},{"mesh":8,"translation":[0.7762501,0.2502035,0.080952],"name":"Box084"},{"mesh":9,"translation":[0.7762501,0.2502035,-0.447547972],"name":"Box085"},{"mesh":10,"translation":[0.7762501,0.2502035,-0.977547944],"name":"Box086"},{"mesh":11,"translation":[-0.6106606,0.007210525,-0.973548055],"name":"Box088"},{"mesh":12,"translation":[0.221250147,0.007210525,0.835452],"name":"Box091"},{"mesh":13,"translation":[-0.231749877,0.007210525,0.835452],"name":"Box092"},{"children":[16],"translation":[-0.7757509,0.281703442,0.992451966],"name":"Barra001"},{"mesh":14,"translation":[-0.0110005187,-0.0100384522,-1.52587887E-07],"rotation":[-4.52377151E-07,-0.7071067,0.7071068,-4.52377066E-07],"scale":[0.1,0.1,0.1],"name":"Box061"},{"children":[18,19],"translation":[-0.0116466247,0.399780333,-0.0335263051],"scale":[0.9895637,1.0,0.9140427],"name":"Colchao"},{"mesh":15,"translation":[0.0141764265,-0.290950626,-0.932851],"rotation":[0.7071068,5.76011345E-08,-5.760115E-08,0.7071067],"scale":[1.0,0.99999994,0.99999994],"name":"Y [168950]"},{"mesh":16,"translation":[1.08910549,-0.318905622,-1.10466206],"rotation":[5.727428E-16,-1.0,4.77751E-16,-2.82129946E-07],"name":"Group#34 [174223]"},{"mesh":17,"translation":[0.0145532321,-0.127045587,0.03395996],"rotation":[0.7071068,5.76011452E-08,-5.76011558E-08,0.7071067],"scale":[0.99999994,0.9999999,0.99999994],"name":"T [168948]"},{"name":"Default light"}],"meshes":[{"primitives":[{"attributes":{"POSITION":1,"NORMAL":2,"TEXCOORD_0":3},"indices":0,"material":0}],"name":"Box026"},{"primitives":[{"attributes":{"POSITION":5,"NORMAL":6,"TEXCOORD_0":7},"indices":4,"material":0}],"name":"Box027"},{"primitives":[{"attributes":{"POSITION":9,"NORMAL":10,"TEXCOORD_0":11},"indices":8,"material":0}],"name":"Box028"},{"primitives":[{"attributes":{"POSITION":13,"NORMAL":14,"TEXCOORD_0":15},"indices":12,"material":0}],"name":"Box029"},{"primitives":[{"attributes":{"POSITION":17,"NORMAL":18,"TEXCOORD_0":19},"indices":16,"material":0}],"name":"Box030"},{"primitives":[{"attributes":{"POSITION":21,"NORMAL":22,"TEXCOORD_0":23},"indices":20,"material":1}],"name":"Box053"},{"primitives":[{"attributes":{"POSITION":25,"NORMAL":26,"TEXCOORD_0":27},"indices":24,"material":2}],"name":"Box034"},{"primitives":[{"attributes":{"POSITION":29,"NORMAL":30,"TEXCOORD_0":31},"indices":28,"material":3}],"name":"Box083"},{"primitives":[{"attributes":{"POSITION":33,"NORMAL":34,"TEXCOORD_0":35},"indices":32,"material":3}],"name":"Box084"},{"primitives":[{"attributes":{"POSITION":37,"NORMAL":38,"TEXCOORD_0":39},"indices":36,"material":3}],"name":"Box085"},{"primitives":[{"attributes":{"POSITION":41,"NORMAL":42,"TEXCOORD_0":43},"indices":40,"material":3}],"name":"Box086"},{"primitives":[{"attributes":{"POSITION":45,"NORMAL":46,"TEXCOORD_0":47},"indices":44,"material":2}],"name":"Box088"},{"primitives":[{"attributes":{"POSITION":49,"NORMAL":50,"TEXCOORD_0":51},"indices":48,"material":3}],"name":"Box091"},{"primitives":[{"attributes":{"POSITION":53,"NORMAL":54,"TEXCOORD_0":55},"indices":52,"material":3}],"name":"Box092"},{"primitives":[{"attributes":{"POSITION":57,"NORMAL":58,"TEXCOORD_0":59},"indices":56,"material":4},{"attributes":{"POSITION":61,"NORMAL":62,"TEXCOORD_0":63},"indices":60,"material":1},{"attributes":{"POSITION":65,"NORMAL":66,"TEXCOORD_0":67},"indices":64,"material":2}],"name":"Box061"},{"primitives":[{"attributes":{"POSITION":69,"NORMAL":70,"TEXCOORD_0":71},"indices":68,"material":5}],"name":"Y [168950]"},{"primitives":[{"attributes":{"POSITION":73,"NORMAL":74,"TEXCOORD_0":75},"indices":72,"material":6}],"name":"Group#34 [174223]"},{"primitives":[{"attributes":{"POSITION":77,"NORMAL":78,"TEXCOORD_0":79},"indices":76,"material":7}],"name":"T [168948]"}],"accessors":[{"bufferView":0,"componentType":5123,"count":36,"type":"SCALAR","name":"accessorIndices"},{"bufferView":1,"componentType":5126,"count":36,"max":[0.333781719,0.0,0.07031189],"min":[-0.333781719,-7.94099855,-0.07031189],"type":"VEC3","name":"accessorPositions"},{"bufferView":1,"byteOffset":432,"componentType":5126,"count":36,"type":"VEC3","name":"accessorNormals"},{"bufferView":2,"componentType":5126,"count":36,"type":"VEC2","name":"accessorUVs"},{"bufferView":0,"byteOffset":72,"componentType":5123,"count":36,"type":"SCALAR","name":"accessorIndices"},{"bufferView":1,"byteOffset":864,"componentType":5126,"count":36,"max":[-0.0120001221,0.001875,0.141563714],"min":[-0.6795636,-7.05487347,0.0009399414],"type":"VEC3","name":"accessorPositions"},{"bufferView":1,"byteOffset":1296,"componentType":5126,"count":36,"type":"VEC3","name":"accessorNormals"},{"bufferView":2,"byteOffset":288,"componentType":5126,"count":36,"type":"VEC2","name":"accessorUVs"},{"bufferView":0,"byteOffset":144,"componentType":5123,"count":36,"type":"SCALAR","name":"accessorIndices"},{"bufferView":1,"byteOffset":1728,"componentType":5126,"count":36,"max":[-0.0120001221,0.001875,0.141563714],"min":[-0.6795636,-7.05487347,0.0009399414],"type":"VEC3","name":"accessorPositions"},{"bufferView":1,"byteOffset":2160,"componentType":5126,"count":36,"type":"VEC3","name":"accessorNormals"},{"bufferView":2,"byteOffset":576,"componentType":5126,"count":36,"type":"VEC2","name":"accessorUVs"},{"bufferView":0,"byteOffset":216,"componentType":5123,"count":36,"type":"SCALAR","name":"accessorIndices"},{"bufferView":1,"byteOffset":2592,"componentType":5126,"count":36,"max":[-0.0120001221,0.001875,0.141563714],"min":[-0.6795636,-7.05487347,0.0009399414],"type":"VEC3","name":"accessorPositions"},{"bufferView":1,"byteOffset":3024,"componentType":5126,"count":36,"type":"VEC3","name":"accessorNormals"},{"bufferView":2,"byteOffset":864,"componentType":5126,"count":36,"type":"VEC2","name":"accessorUVs"},{"bufferView":0,"byteOffset":288,"componentType":5123,"count":36,"type":"SCALAR","name":"accessorIndices"},{"bufferView":1,"byteOffset":3456,"componentType":5126,"count":36,"max":[-0.0120001221,0.897374868,0.141563714],"min":[-0.6795636,-7.05487347,0.0009399414],"type":"VEC3","name":"accessorPositions"},{"bufferView":1,"byteOffset":3888,"componentType":5126,"count":36,"type":"VEC3","name":"accessorNormals"},{"bufferView":2,"byteOffset":1152,"componentType":5126,"count":36,"type":"VEC2","name":"accessorUVs"},{"bufferView":0,"byteOffset":360,"componentType":5123,"count":132,"type":"SCALAR","name":"accessorIndices"},{"bufferView":1,"byteOffset":4320,"componentType":5126,"count":132,"max":[1.66426994E-09,0.0100384224,0.0039994726],"min":[-2.28199983,-0.009961695,-0.00399938971],"type":"VEC3","name":"accessorPositions"},{"bufferView":1,"byteOffset":5904,"componentType":5126,"count":132,"type":"VEC3","name":"accessorNormals"},{"bufferView":2,"byteOffset":1440,"componentType":5126,"count":132,"type":"VEC2","name":"accessorUVs"},{"bufferView":0,"byteOffset":624,"componentType":5123,"count":684,"type":"SCALAR","name":"accessorIndices"},{"bufferView":1,"byteOffset":7488,"componentType":5126,"count":684,"max":[21.09,5.375,18.027256],"min":[-1.755,-4.175502,-1.88774729],"type":"VEC3","name":"accessorPositions"},{"bufferView":1,"byteOffset":15696,"componentType":5126,"count":684,"type":"VEC3","name":"accessorNormals"},{"bufferView":2,"byteOffset":2496,"componentType":5126,"count":684,"type":"VEC2","name":"accessorUVs"},{"bufferView":0,"byteOffset":1992,"componentType":5123,"count":36,"type":"SCALAR","name":"accessorIndices"},{"bufferView":1,"byteOffset":23904,"componentType":5126,"count":36,"max":[0.0,0.015,0.383999884],"min":[-1.552,0.0,0.0],"type":"VEC3","name":"accessorPositions"},{"bufferView":1,"byteOffset":24336,"componentType":5126,"count":36,"type":"VEC3","name":"accessorNormals"},{"bufferView":2,"byteOffset":7968,"componentType":5126,"count":36,"type":"VEC2","name":"accessorUVs"},{"bufferView":0,"byteOffset":2064,"componentType":5123,"count":36,"type":"SCALAR","name":"accessorIndices"},{"bufferView":1,"byteOffset":24768,"componentType":5126,"count":36,"max":[0.0,0.015,0.383999884],"min":[-1.552,0.0,0.0],"type":"VEC3","name":"accessorPositions"},{"bufferView":1,"byteOffset":25200,"componentType":5126,"count":36,"type":"VEC3","name":"accessorNormals"},{"bufferView":2,"byteOffset":8256,"componentType":5126,"count":36,"type":"VEC2","name":"accessorUVs"},{"bufferView":0,"byteOffset":2136,"componentType":5123,"count":36,"type":"SCALAR","name":"accessorIndices"},{"bufferView":1,"byteOffset":25632,"componentType":5126,"count":36,"max":[0.0,0.015,0.383999884],"min":[-1.552,0.0,0.0],"type":"VEC3","name":"accessorPositions"},{"bufferView":1,"byteOffset":26064,"componentType":5126,"count":36,"type":"VEC3","name":"accessorNormals"},{"bufferView":2,"byteOffset":8544,"componentType":5126,"count":36,"type":"VEC2","name":"accessorUVs"},{"bufferView":0,"byteOffset":2208,"componentType":5123,"count":36,"type":"SCALAR","name":"accessorIndices"},{"bufferView":1,"byteOffset":26496,"componentType":5126,"count":36,"max":[0.0,0.015,0.383999884],"min":[-1.552,0.0,0.0],"type":"VEC3","name":"accessorPositions"},{"bufferView":1,"byteOffset":26928,"componentType":5126,"count":36,"type":"VEC3","name":"accessorNormals"},{"bufferView":2,"byteOffset":8832,"componentType":5126,"count":36,"type":"VEC2","name":"accessorUVs"},{"bufferView":0,"byteOffset":2280,"componentType":5123,"count":36,"type":"SCALAR","name":"accessorIndices"},{"bufferView":1,"byteOffset":27360,"componentType":5126,"count":36,"max":[1.22791064,0.242992759,0.0109999822],"min":[-0.0060893246,-0.00555707933,-6.624553E-10],"type":"VEC3","name":"accessorPositions"},{"bufferView":1,"byteOffset":27792,"componentType":5126,"count":36,"type":"VEC3","name":"accessorNormals"},{"bufferView":2,"byteOffset":9120,"componentType":5126,"count":36,"type":"VEC2","name":"accessorUVs"},{"bufferView":0,"byteOffset":2352,"componentType":5123,"count":36,"type":"SCALAR","name":"accessorIndices"},{"bufferView":1,"byteOffset":28224,"componentType":5126,"count":36,"max":[0.0110000074,0.242992848,-5.96046434E-10],"min":[-6.62455535E-10,-0.005557081,-1.79799986],"type":"VEC3","name":"accessorPositions"},{"bufferView":1,"byteOffset":28656,"componentType":5126,"count":36,"type":"VEC3","name":"accessorNormals"},{"bufferView":2,"byteOffset":9408,"componentType":5126,"count":36,"type":"VEC2","name":"accessorUVs"},{"bufferView":0,"byteOffset":2424,"componentType":5123,"count":36,"type":"SCALAR","name":"accessorIndices"},{"bufferView":1,"byteOffset":29088,"componentType":5126,"count":36,"max":[0.0110000074,0.242992848,-5.96046434E-10],"min":[-6.62455535E-10,-0.005557081,-1.79799986],"type":"VEC3","name":"accessorPositions"},{"bufferView":1,"byteOffset":29520,"componentType":5126,"count":36,"type":"VEC3","name":"accessorNormals"},{"bufferView":2,"byteOffset":9696,"componentType":5126,"count":36,"type":"VEC2","name":"accessorUVs"},{"bufferView":0,"byteOffset":2496,"componentType":5123,"count":1056,"type":"SCALAR","name":"accessorIndices"},{"bufferView":1,"byteOffset":29952,"componentType":5126,"count":1056,"max":[0.0399968,19.6955166,1.165002],"min":[-15.7800016,-0.121567711,-0.100387275],"type":"VEC3","name":"accessorPositions"},{"bufferView":1,"byteOffset":42624,"componentType":5126,"count":1056,"type":"VEC3","name":"accessorNormals"},{"bufferView":2,"byteOffset":9984,"componentType":5126,"count":1056,"type":"VEC2","name":"accessorUVs"},{"bufferView":0,"byteOffset":4608,"componentType":5123,"count":3036,"type":"SCALAR","name":"accessorIndices"},{"bufferView":1,"byteOffset":55296,"componentType":5126,"count":3036,"max":[3.540011,19.7800083,1.16500211],"min":[-19.27999,-0.121564291,-6.850388],"type":"VEC3","name":"accessorPositions"},{"bufferView":1,"byteOffset":91728,"componentType":5126,"count":3036,"type":"VEC3","name":"accessorNormals"},{"bufferView":2,"byteOffset":18432,"componentType":5126,"count":3036,"type":"VEC2","name":"accessorUVs"},{"bufferView":0,"byteOffset":10680,"componentType":5123,"count":528,"type":"SCALAR","name":"accessorIndices"},{"bufferView":1,"byteOffset":128160,"componentType":5126,"count":528,"max":[3.55500484,16.1499882,1.16499937],"min":[-0.10945709,16.0699959,-0.10038662],"type":"VEC3","name":"accessorPositions"},{"bufferView":1,"byteOffset":134496,"componentType":5126,"count":528,"type":"VEC3","name":"accessorNormals"},{"bufferView":2,"byteOffset":42720,"componentType":5126,"count":528,"type":"VEC2","name":"accessorUVs"},{"bufferView":0,"byteOffset":11736,"componentType":5123,"count":39168,"type":"SCALAR","name":"accessorIndices"},{"bufferView":1,"byteOffset":140832,"componentType":5126,"count":39168,"max":[0.748809159,1.96655357,-0.135674015],"min":[-0.7771624,0.362018734,-0.4462275],"type":"VEC3","name":"accessorPositions"},{"bufferView":1,"byteOffset":610848,"componentType":5126,"count":39168,"type":"VEC3","name":"accessorNormals"},{"bufferView":2,"byteOffset":46944,"componentType":5126,"count":39168,"type":"VEC2","name":"accessorUVs"},{"bufferView":0,"byteOffset":90072,"componentType":5123,"count":1764,"type":"SCALAR","name":"accessorIndices"},{"bufferView":1,"byteOffset":1080864,"componentType":5126,"count":1764,"max":[1.78236282,0.361001164,-0.07095952],"min":[0.380818278,0.188501149,-2.08248734],"type":"VEC3","name":"accessorPositions"},{"bufferView":1,"byteOffset":1102032,"componentType":5126,"count":1764,"type":"VEC3","name":"accessorNormals"},{"bufferView":2,"byteOffset":360288,"componentType":5126,"count":1764,"type":"VEC2","name":"accessorUVs"},{"bufferView":0,"byteOffset":93600,"componentType":5123,"count":11628,"type":"SCALAR","name":"accessorIndices"},{"bufferView":1,"byteOffset":1123200,"componentType":5126,"count":11628,"max":[0.6635859,-0.4404461,-0.5502213],"min":[-0.723078,-1.00491214,-0.74884963],"type":"VEC3","name":"accessorPositions"},{"bufferView":1,"byteOffset":1262736,"componentType":5126,"count":11628,"type":"VEC3","name":"accessorNormals"},{"bufferView":2,"byteOffset":374400,"componentType":5126,"count":11628,"type":"VEC2","name":"accessorUVs"}],"bufferViews":[{"buffer":0,"byteLength":116856,"name":"bufferViewScalar"},{"buffer":0,"byteOffset":116856,"byteLength":1402272,"byteStride":12,"name":"bufferViewFloatVec3"},{"buffer":0,"byteOffset":1519128,"byteLength":467424,"byteStride":8,"name":"bufferViewFloatVec2"}],"buffers":[{"uri":"Cama02.bin","byteLength":1986552}],"materials":[{"pbrMetallicRoughness":{"baseColorTexture":{"index":0},"metallicRoughnessTexture":{"index":1}},"name":"Carvai"},{"pbrMetallicRoughness":{"baseColorTexture":{"index":3},"metallicFactor":0.0,"roughnessFactor":0.9},"occlusionTexture":{"index":2},"name":"Carvalho2"},{"pbrMetallicRoughness":{"baseColorTexture":{"index":0},"metallicFactor":0.0,"roughnessFactor":0.9},"occlusionTexture":{"index":4},"name":"Carvalho1"},{"pbrMetallicRoughness":{"baseColorTexture":{"index":5},"metallicFactor":0.0,"roughnessFactor":0.6},"name":"MAD_MDF"},{"pbrMetallicRoughness":{"baseColorTexture":{"index":0},"metallicRoughnessTexture":{"index":1}},"name":"Carvalho 01"},{"pbrMetallicRoughness":{"baseColorFactor":[0.6670588,0.648191035,0.571079135,1.0],"metallicFactor":0.0,"roughnessFactor":0.329999983},"name":"Colchao"},{"pbrMetallicRoughness":{"baseColorFactor":[0.499607861,0.496862739,0.491372555,1.0],"metallicFactor":0.0,"roughnessFactor":0.599999964},"name":"Colchão"},{"pbrMetallicRoughness":{"baseColorFactor":[0.323921561,0.323921561,0.323921561,1.0],"metallicFactor":0.0,"roughnessFactor":0.599999964},"name":"Travesseiro"}],"textures":[{"sampler":0,"source":0,"name":"american_walnut_crown_cut_Base_Color.jpg"},{"sampler":0,"source":1,"name":"american_walnut_crown_cut_Roughness0.jpg"},{"sampler":0,"source":2,"name":"american_walnut_crown_cut_Roughness_2.jpg"},{"sampler":0,"source":3,"name":"american_walnut_crown_cut_Base_Color_2.jpg"},{"sampler":0,"source":4,"name":"american_walnut_crown_cut_Roughness.jpg"},{"sampler":0,"source":5,"name":"MDF_C.jpg"}],"images":[{"uri":"./american_walnut_crown_cut_Base_Color.jpg"},{"uri":"./american_walnut_crown_cut_Roughness0.jpg"},{"uri":"./american_walnut_crown_cut_Roughness_2.jpg"},{"uri":"./american_walnut_crown_cut_Base_Color_2.jpg"},{"uri":"./american_walnut_crown_cut_Roughness.jpg"},{"uri":"./MDF_C.jpg"}],"samplers":[{"magFilter":9729,"minFilter":9987},{"magFilter":9729,"minFilter":9987,"wrapS":33648}]}