{"asset":{"version":"2.0","generator":"babylon.js glTF exporter for 3dsmax 2020 v20200508.2"},"extensionsUsed":["KHR_texture_transform"],"extensionsRequired":["KHR_texture_transform"],"scene":0,"scenes":[{"nodes":[0,1,2,3,4,5,6,7,8,9,10,11,12,13,14,15,16,17,18,19,20,21]}],"nodes":[{"mesh":0,"translation":[1.100578,0.9522534,-1.000423],"scale":[0.1,0.1,0.1],"name":"Box026"},{"mesh":1,"translation":[0.616827965,0.8636407,-1.00754821],"scale":[0.1,0.1,0.1],"name":"Box027"},{"mesh":2,"translation":[0.0346875,0.8636407,-1.00754821],"scale":[0.1,0.1,0.1],"name":"Box028"},{"mesh":3,"translation":[-0.5467499,0.8636407,-1.00754821],"scale":[0.1,0.1,0.1],"name":"Box029"},{"mesh":4,"translation":[-1.06538761,0.8636407,-1.00754821],"scale":[0.1,0.1,0.1],"name":"Box030"},{"mesh":5,"translation":[1.14125,0.414126575,-0.981547236],"name":"Box053"},{"mesh":6,"translation":[0.7762501,0.2502035,0.610452056],"name":"Box083"},{"mesh":7,"translation":[0.7762501,0.2502035,0.080952],"name":"Box084"},{"mesh":8,"translation":[0.7762501,0.2502035,-0.447547972],"name":"Box085"},{"mesh":9,"translation":[0.7762501,0.2502035,-0.977547944],"name":"Box086"},{"mesh":10,"translation":[-0.6106606,0.007210525,-0.973548055],"name":"Box088"},{"mesh":11,"translation":[0.221250147,0.007210525,0.835452],"name":"Box091"},{"mesh":12,"translation":[-0.231749877,0.007210525,0.835452],"name":"Box092"},{"mesh":13,"translation":[-0.96675,0.4192035,-0.803773046],"scale":[0.1,0.1,0.1],"name":"Box034"},{"mesh":14,"translation":[-0.7867514,0.271665,0.992451847],"rotation":[-5.366708E-07,-0.7071067,0.7071068,-5.36670768E-07],"scale":[0.1,0.1,0.1],"name":"Box061"},{"mesh":15,"translation":[0.0007748794,0.262332082,-0.0349831],"name":"Colchão"},{"mesh":16,"translation":[0.0196125768,0.7152313,0.160948619],"name":"Plane001"},{"mesh":17,"translation":[0.0400964543,-0.0382298157,-0.3639821],"rotation":[-1.0,9.426787E-13,-1.1920929E-06,-7.90753631E-07],"scale":[0.7848138,0.7092681,0.615418851],"name":"obj_05#1 [130040]"},{"mesh":18,"translation":[0.0400964543,-0.0382298157,-0.3639821],"rotation":[-1.0,9.426787E-13,-1.1920929E-06,-7.90753631E-07],"scale":[0.7848138,0.7092681,0.615418851],"name":"obj_06#1 [130042]"},{"mesh":19,"translation":[-0.96675,0.4192035,-0.803773046],"scale":[0.1,0.1,0.1],"name":"Criado mudo"},{"translation":[0.00238185166,0.116186753,-0.8861919],"rotation":[0.7071068,5.76011345E-08,-5.76011452E-08,0.7071067],"scale":[0.989563644,0.9140426,0.99999994],"name":"Cobertor"},{"name":"Default light"}],"meshes":[{"primitives":[{"attributes":{"POSITION":1,"NORMAL":2,"TEXCOORD_0":3},"indices":0,"material":0}],"name":"Box026"},{"primitives":[{"attributes":{"POSITION":5,"NORMAL":6,"TEXCOORD_0":7},"indices":4,"material":0}],"name":"Box027"},{"primitives":[{"attributes":{"POSITION":9,"NORMAL":10,"TEXCOORD_0":11},"indices":8,"material":0}],"name":"Box028"},{"primitives":[{"attributes":{"POSITION":13,"NORMAL":14,"TEXCOORD_0":15},"indices":12,"material":0}],"name":"Box029"},{"primitives":[{"attributes":{"POSITION":17,"NORMAL":18,"TEXCOORD_0":19},"indices":16,"material":0}],"name":"Box030"},{"primitives":[{"attributes":{"POSITION":21,"NORMAL":22,"TEXCOORD_0":23},"indices":20,"material":1}],"name":"Box053"},{"primitives":[{"attributes":{"POSITION":25,"NORMAL":26,"TEXCOORD_0":27},"indices":24,"material":2}],"name":"Box083"},{"primitives":[{"attributes":{"POSITION":29,"NORMAL":30,"TEXCOORD_0":31},"indices":28,"material":2}],"name":"Box084"},{"primitives":[{"attributes":{"POSITION":33,"NORMAL":34,"TEXCOORD_0":35},"indices":32,"material":2}],"name":"Box085"},{"primitives":[{"attributes":{"POSITION":37,"NORMAL":38,"TEXCOORD_0":39},"indices":36,"material":2}],"name":"Box086"},{"primitives":[{"attributes":{"POSITION":41,"NORMAL":42,"TEXCOORD_0":43},"indices":40,"material":3}],"name":"Box088"},{"primitives":[{"attributes":{"POSITION":45,"NORMAL":46,"TEXCOORD_0":47},"indices":44,"material":2}],"name":"Box091"},{"primitives":[{"attributes":{"POSITION":49,"NORMAL":50,"TEXCOORD_0":51},"indices":48,"material":2}],"name":"Box092"},{"primitives":[{"attributes":{"POSITION":53,"NORMAL":54,"TEXCOORD_0":55},"indices":52,"material":3}],"name":"Box034"},{"primitives":[{"attributes":{"POSITION":57,"NORMAL":58,"TEXCOORD_0":59},"indices":56,"material":4},{"attributes":{"POSITION":61,"NORMAL":62,"TEXCOORD_0":63},"indices":60,"material":1},{"attributes":{"POSITION":65,"NORMAL":66,"TEXCOORD_0":67},"indices":64,"material":3}],"name":"Box061"},{"primitives":[{"attributes":{"POSITION":69,"NORMAL":70,"TEXCOORD_0":71},"indices":68,"material":5}],"name":"Colchão"},{"primitives":[{"attributes":{"POSITION":73,"NORMAL":74,"TEXCOORD_0":75},"indices":72,"material":6}],"name":"Plane001"},{"primitives":[{"attributes":{"POSITION":77,"NORMAL":78,"TEXCOORD_0":79},"indices":76,"material":7}],"name":"obj_05#1 [130040]"},{"primitives":[{"attributes":{"POSITION":81,"NORMAL":82,"TEXCOORD_0":83},"indices":80,"material":7}],"name":"obj_06#1 [130042]"},{"primitives":[{"attributes":{"POSITION":85,"NORMAL":86,"TEXCOORD_0":87},"indices":84,"material":3}],"name":"Criado mudo"}],"accessors":[{"bufferView":0,"componentType":5123,"count":36,"type":"SCALAR","name":"accessorIndices"},{"bufferView":1,"componentType":5126,"count":36,"max":[0.333781719,0.0,0.07031189],"min":[-0.333781719,-7.94099855,-0.07031189],"type":"VEC3","name":"accessorPositions"},{"bufferView":1,"byteOffset":432,"componentType":5126,"count":36,"type":"VEC3","name":"accessorNormals"},{"bufferView":2,"componentType":5126,"count":36,"type":"VEC2","name":"accessorUVs"},{"bufferView":0,"byteOffset":72,"componentType":5123,"count":36,"type":"SCALAR","name":"accessorIndices"},{"bufferView":1,"byteOffset":864,"componentType":5126,"count":36,"max":[-0.0120001221,0.001875,0.141563714],"min":[-0.6795636,-7.05487347,0.0009399414],"type":"VEC3","name":"accessorPositions"},{"bufferView":1,"byteOffset":1296,"componentType":5126,"count":36,"type":"VEC3","name":"accessorNormals"},{"bufferView":2,"byteOffset":288,"componentType":5126,"count":36,"type":"VEC2","name":"accessorUVs"},{"bufferView":0,"byteOffset":144,"componentType":5123,"count":36,"type":"SCALAR","name":"accessorIndices"},{"bufferView":1,"byteOffset":1728,"componentType":5126,"count":36,"max":[-0.0120001221,0.001875,0.141563714],"min":[-0.6795636,-7.05487347,0.0009399414],"type":"VEC3","name":"accessorPositions"},{"bufferView":1,"byteOffset":2160,"componentType":5126,"count":36,"type":"VEC3","name":"accessorNormals"},{"bufferView":2,"byteOffset":576,"componentType":5126,"count":36,"type":"VEC2","name":"accessorUVs"},{"bufferView":0,"byteOffset":216,"componentType":5123,"count":36,"type":"SCALAR","name":"accessorIndices"},{"bufferView":1,"byteOffset":2592,"componentType":5126,"count":36,"max":[-0.0120001221,0.001875,0.141563714],"min":[-0.6795636,-7.05487347,0.0009399414],"type":"VEC3","name":"accessorPositions"},{"bufferView":1,"byteOffset":3024,"componentType":5126,"count":36,"type":"VEC3","name":"accessorNormals"},{"bufferView":2,"byteOffset":864,"componentType":5126,"count":36,"type":"VEC2","name":"accessorUVs"},{"bufferView":0,"byteOffset":288,"componentType":5123,"count":36,"type":"SCALAR","name":"accessorIndices"},{"bufferView":1,"byteOffset":3456,"componentType":5126,"count":36,"max":[-0.0120001221,0.897374868,0.141563714],"min":[-0.6795636,-7.05487347,0.0009399414],"type":"VEC3","name":"accessorPositions"},{"bufferView":1,"byteOffset":3888,"componentType":5126,"count":36,"type":"VEC3","name":"accessorNormals"},{"bufferView":2,"byteOffset":1152,"componentType":5126,"count":36,"type":"VEC2","name":"accessorUVs"},{"bufferView":0,"byteOffset":360,"componentType":5123,"count":132,"type":"SCALAR","name":"accessorIndices"},{"bufferView":1,"byteOffset":4320,"componentType":5126,"count":132,"max":[1.66426994E-09,0.0100384224,0.0039994726],"min":[-2.28199983,-0.009961695,-0.00399938971],"type":"VEC3","name":"accessorPositions"},{"bufferView":1,"byteOffset":5904,"componentType":5126,"count":132,"type":"VEC3","name":"accessorNormals"},{"bufferView":2,"byteOffset":1440,"componentType":5126,"count":132,"type":"VEC2","name":"accessorUVs"},{"bufferView":0,"byteOffset":624,"componentType":5123,"count":36,"type":"SCALAR","name":"accessorIndices"},{"bufferView":1,"byteOffset":7488,"componentType":5126,"count":36,"max":[0.0,0.015,0.383999884],"min":[-1.552,0.0,0.0],"type":"VEC3","name":"accessorPositions"},{"bufferView":1,"byteOffset":7920,"componentType":5126,"count":36,"type":"VEC3","name":"accessorNormals"},{"bufferView":2,"byteOffset":2496,"componentType":5126,"count":36,"type":"VEC2","name":"accessorUVs"},{"bufferView":0,"byteOffset":696,"componentType":5123,"count":36,"type":"SCALAR","name":"accessorIndices"},{"bufferView":1,"byteOffset":8352,"componentType":5126,"count":36,"max":[0.0,0.015,0.383999884],"min":[-1.552,0.0,0.0],"type":"VEC3","name":"accessorPositions"},{"bufferView":1,"byteOffset":8784,"componentType":5126,"count":36,"type":"VEC3","name":"accessorNormals"},{"bufferView":2,"byteOffset":2784,"componentType":5126,"count":36,"type":"VEC2","name":"accessorUVs"},{"bufferView":0,"byteOffset":768,"componentType":5123,"count":36,"type":"SCALAR","name":"accessorIndices"},{"bufferView":1,"byteOffset":9216,"componentType":5126,"count":36,"max":[0.0,0.015,0.383999884],"min":[-1.552,0.0,0.0],"type":"VEC3","name":"accessorPositions"},{"bufferView":1,"byteOffset":9648,"componentType":5126,"count":36,"type":"VEC3","name":"accessorNormals"},{"bufferView":2,"byteOffset":3072,"componentType":5126,"count":36,"type":"VEC2","name":"accessorUVs"},{"bufferView":0,"byteOffset":840,"componentType":5123,"count":36,"type":"SCALAR","name":"accessorIndices"},{"bufferView":1,"byteOffset":10080,"componentType":5126,"count":36,"max":[0.0,0.015,0.383999884],"min":[-1.552,0.0,0.0],"type":"VEC3","name":"accessorPositions"},{"bufferView":1,"byteOffset":10512,"componentType":5126,"count":36,"type":"VEC3","name":"accessorNormals"},{"bufferView":2,"byteOffset":3360,"componentType":5126,"count":36,"type":"VEC2","name":"accessorUVs"},{"bufferView":0,"byteOffset":912,"componentType":5123,"count":36,"type":"SCALAR","name":"accessorIndices"},{"bufferView":1,"byteOffset":10944,"componentType":5126,"count":36,"max":[1.22791064,0.242992759,0.0109999822],"min":[-0.0060893246,-0.00555707933,-6.624553E-10],"type":"VEC3","name":"accessorPositions"},{"bufferView":1,"byteOffset":11376,"componentType":5126,"count":36,"type":"VEC3","name":"accessorNormals"},{"bufferView":2,"byteOffset":3648,"componentType":5126,"count":36,"type":"VEC2","name":"accessorUVs"},{"bufferView":0,"byteOffset":984,"componentType":5123,"count":36,"type":"SCALAR","name":"accessorIndices"},{"bufferView":1,"byteOffset":11808,"componentType":5126,"count":36,"max":[0.0110000074,0.242992848,-5.96046434E-10],"min":[-6.62455535E-10,-0.005557081,-1.79799986],"type":"VEC3","name":"accessorPositions"},{"bufferView":1,"byteOffset":12240,"componentType":5126,"count":36,"type":"VEC3","name":"accessorNormals"},{"bufferView":2,"byteOffset":3936,"componentType":5126,"count":36,"type":"VEC2","name":"accessorUVs"},{"bufferView":0,"byteOffset":1056,"componentType":5123,"count":36,"type":"SCALAR","name":"accessorIndices"},{"bufferView":1,"byteOffset":12672,"componentType":5126,"count":36,"max":[0.0110000074,0.242992848,-5.96046434E-10],"min":[-6.62455535E-10,-0.005557081,-1.79799986],"type":"VEC3","name":"accessorPositions"},{"bufferView":1,"byteOffset":13104,"componentType":5126,"count":36,"type":"VEC3","name":"accessorNormals"},{"bufferView":2,"byteOffset":4224,"componentType":5126,"count":36,"type":"VEC2","name":"accessorUVs"},{"bufferView":0,"byteOffset":1128,"componentType":5123,"count":396,"type":"SCALAR","name":"accessorIndices"},{"bufferView":1,"byteOffset":13536,"componentType":5126,"count":396,"max":[21.0800037,5.375,18.027256],"min":[-1.74000061,-4.175502,-1.88774729],"type":"VEC3","name":"accessorPositions"},{"bufferView":1,"byteOffset":18288,"componentType":5126,"count":396,"type":"VEC3","name":"accessorNormals"},{"bufferView":2,"byteOffset":4512,"componentType":5126,"count":396,"type":"VEC2","name":"accessorUVs"},{"bufferView":0,"byteOffset":1920,"componentType":5123,"count":1056,"type":"SCALAR","name":"accessorIndices"},{"bufferView":1,"byteOffset":23040,"componentType":5126,"count":1056,"max":[0.0399968,19.6955166,1.165002],"min":[-15.7800016,-0.121567711,-0.100387275],"type":"VEC3","name":"accessorPositions"},{"bufferView":1,"byteOffset":35712,"componentType":5126,"count":1056,"type":"VEC3","name":"accessorNormals"},{"bufferView":2,"byteOffset":7680,"componentType":5126,"count":1056,"type":"VEC2","name":"accessorUVs"},{"bufferView":0,"byteOffset":4032,"componentType":5123,"count":3036,"type":"SCALAR","name":"accessorIndices"},{"bufferView":1,"byteOffset":48384,"componentType":5126,"count":3036,"max":[3.540011,19.7800083,1.16500211],"min":[-19.27999,-0.121564291,-6.850388],"type":"VEC3","name":"accessorPositions"},{"bufferView":1,"byteOffset":84816,"componentType":5126,"count":3036,"type":"VEC3","name":"accessorNormals"},{"bufferView":2,"byteOffset":16128,"componentType":5126,"count":3036,"type":"VEC2","name":"accessorUVs"},{"bufferView":0,"byteOffset":10104,"componentType":5123,"count":528,"type":"SCALAR","name":"accessorIndices"},{"bufferView":1,"byteOffset":121248,"componentType":5126,"count":528,"max":[3.55500484,16.1499882,1.16499937],"min":[-0.10945709,16.0699959,-0.10038662],"type":"VEC3","name":"accessorPositions"},{"bufferView":1,"byteOffset":127584,"componentType":5126,"count":528,"type":"VEC3","name":"accessorNormals"},{"bufferView":2,"byteOffset":40416,"componentType":5126,"count":528,"type":"VEC2","name":"accessorUVs"},{"bufferView":0,"byteOffset":11160,"componentType":5123,"count":1764,"type":"SCALAR","name":"accessorIndices"},{"bufferView":1,"byteOffset":133920,"componentType":5126,"count":1764,"max":[0.686925054,0.25,0.9420501],"min":[-0.686925054,0.0,-0.9420501],"type":"VEC3","name":"accessorPositions"},{"bufferView":1,"byteOffset":155088,"componentType":5126,"count":1764,"type":"VEC3","name":"accessorNormals"},{"bufferView":2,"byteOffset":44640,"componentType":5126,"count":1764,"type":"VEC2","name":"accessorUVs"},{"bufferView":0,"byteOffset":14688,"componentType":5123,"count":9600,"type":"SCALAR","name":"accessorIndices"},{"bufferView":1,"byteOffset":176256,"componentType":5126,"count":9600,"max":[0.8428113,-0.08279777,0.9133876],"min":[-0.854350269,-0.494131148,-0.9559713],"type":"VEC3","name":"accessorPositions"},{"bufferView":1,"byteOffset":291456,"componentType":5126,"count":9600,"type":"VEC3","name":"accessorNormals"},{"bufferView":2,"byteOffset":58752,"componentType":5126,"count":9600,"type":"VEC2","name":"accessorUVs"},{"bufferView":0,"byteOffset":33888,"componentType":5123,"count":1152,"type":"SCALAR","name":"accessorIndices"},{"bufferView":1,"byteOffset":406656,"componentType":5126,"count":1152,"max":[0.606557,-0.745239854,0.9226481],"min":[-0.0431625657,-0.918002248,0.4106639],"type":"VEC3","name":"accessorPositions"},{"bufferView":1,"byteOffset":420480,"componentType":5126,"count":1152,"type":"VEC3","name":"accessorNormals"},{"bufferView":2,"byteOffset":135552,"componentType":5126,"count":1152,"type":"VEC2","name":"accessorUVs"},{"bufferView":0,"byteOffset":36192,"componentType":5123,"count":1152,"type":"SCALAR","name":"accessorIndices"},{"bufferView":1,"byteOffset":434304,"componentType":5126,"count":1152,"max":[-0.0872548148,-0.745239854,0.9226481],"min":[-0.7369744,-0.918002248,0.4106639],"type":"VEC3","name":"accessorPositions"},{"bufferView":1,"byteOffset":448128,"componentType":5126,"count":1152,"type":"VEC3","name":"accessorNormals"},{"bufferView":2,"byteOffset":144768,"componentType":5126,"count":1152,"type":"VEC2","name":"accessorUVs"},{"bufferView":0,"byteOffset":38496,"componentType":5123,"count":288,"type":"SCALAR","name":"accessorIndices"},{"bufferView":1,"byteOffset":461952,"componentType":5126,"count":288,"max":[21.09,0.0290625,1.89225125],"min":[-1.755,-2.64038682,-1.73775],"type":"VEC3","name":"accessorPositions"},{"bufferView":1,"byteOffset":465408,"componentType":5126,"count":288,"type":"VEC3","name":"accessorNormals"},{"bufferView":2,"byteOffset":153984,"componentType":5126,"count":288,"type":"VEC2","name":"accessorUVs"}],"bufferViews":[{"buffer":0,"byteLength":39072,"name":"bufferViewScalar"},{"buffer":0,"byteOffset":39072,"byteLength":468864,"byteStride":12,"name":"bufferViewFloatVec3"},{"buffer":0,"byteOffset":507936,"byteLength":156288,"byteStride":8,"name":"bufferViewFloatVec2"}],"buffers":[{"uri":"Cama02.bin","byteLength":664224}],"materials":[{"pbrMetallicRoughness":{"baseColorTexture":{"index":0,"extensions":{"KHR_texture_transform":{"offset":[0.0,0.0],"scale":[1.0,1.0],"texCoord":0}}},"metallicRoughnessTexture":{"index":1,"extensions":{"KHR_texture_transform":{"offset":[0.0,0.0],"scale":[1.0,1.0],"texCoord":0}}}},"name":"Carvai"},{"pbrMetallicRoughness":{"baseColorTexture":{"index":3,"extensions":{"KHR_texture_transform":{"offset":[0.0,0.0],"scale":[1.0,1.0],"texCoord":0}}},"metallicFactor":0.0,"roughnessFactor":0.9},"occlusionTexture":{"index":2,"extensions":{"KHR_texture_transform":{"offset":[0.0,0.0],"scale":[1.0,1.0],"texCoord":0}}},"name":"Carvalho2"},{"pbrMetallicRoughness":{"baseColorTexture":{"index":4,"extensions":{"KHR_texture_transform":{"offset":[0.0,0.0],"scale":[1.0,1.0],"texCoord":0}}},"metallicFactor":0.0,"roughnessFactor":0.6},"name":"MAD_MDF"},{"pbrMetallicRoughness":{"baseColorTexture":{"index":0,"extensions":{"KHR_texture_transform":{"offset":[0.0,0.0],"scale":[1.0,1.0],"texCoord":0}}},"metallicFactor":0.0,"roughnessFactor":0.9},"occlusionTexture":{"index":5,"extensions":{"KHR_texture_transform":{"offset":[0.0,0.0],"scale":[1.0,1.0],"texCoord":0}}},"name":"Carvalho1"},{"pbrMetallicRoughness":{"baseColorTexture":{"index":7,"extensions":{"KHR_texture_transform":{"offset":[0.4875,-0.4875],"scale":[0.025,0.025],"texCoord":0}}},"metallicRoughnessTexture":{"index":1,"extensions":{"KHR_texture_transform":{"offset":[0.0,0.0],"scale":[1.0,1.0],"texCoord":0}}}},"name":"Carvalho 01"},{"pbrMetallicRoughness":{"baseColorFactor":[0.6039216,0.6039216,0.6039216,1.0],"metallicFactor":0.0,"roughnessFactor":0.8},"name":"Colchão"},{"pbrMetallicRoughness":{"baseColorFactor":[0.123529412,0.120784312,0.112549022,1.0],"metallicFactor":0.0,"roughnessFactor":0.8},"name":"Edredon"},{"pbrMetallicRoughness":{"baseColorFactor":[0.323921561,0.323921561,0.323921561,1.0],"metallicFactor":0.0,"roughnessFactor":0.8},"name":"Travesseiro"}],"textures":[{"sampler":0,"source":0,"name":"american_walnut_crown_cut_Base_Color.jpg"},{"sampler":0,"source":1,"name":"american_walnut_crown_cut_Roughness0.jpg"},{"sampler":0,"source":2,"name":"american_walnut_crown_cut_Roughness_2.jpg"},{"sampler":0,"source":3,"name":"american_walnut_crown_cut_Base_Color_2.jpg"},{"sampler":0,"source":4,"name":"MDF_C.jpg"},{"sampler":0,"source":5,"name":"american_walnut_crown_cut_Roughness.jpg"},{"sampler":0,"source":0,"name":"american_walnut_crown_cut_Base_Color.jpg"},{"sampler":0,"source":0,"name":"american_walnut_crown_cut_Base_Color.jpg"},{"sampler":1,"source":1,"name":"american_walnut_crown_cut_Roughness0.jpg"}],"images":[{"uri":"./american_walnut_crown_cut_Base_Color.jpg"},{"uri":"./american_walnut_crown_cut_Roughness0.jpg"},{"uri":"./american_walnut_crown_cut_Roughness_2.jpg"},{"uri":"./american_walnut_crown_cut_Base_Color_2.jpg"},{"uri":"./MDF_C.jpg"},{"uri":"./american_walnut_crown_cut_Roughness.jpg"}],"samplers":[{"magFilter":9729,"minFilter":9987},{"magFilter":9729,"minFilter":9987,"wrapS":33648}]}