{"asset":{"version":"2.0","generator":"babylon.js glTF exporter for 3dsmax 2020 v20200508.2"},"scene":0,"scenes":[{"nodes":[0,1,2,3,4,5,6,8,9,10,11,12,13,14,15,17,23,24]}],"nodes":[{"mesh":0,"translation":[1.100578,0.9522534,-1.000423],"scale":[0.1,0.1,0.1],"name":"Box026"},{"mesh":1,"translation":[0.616827965,0.8636407,-1.00754821],"scale":[0.1,0.1,0.1],"name":"Box027"},{"mesh":2,"translation":[0.0346875,0.8636407,-1.00754821],"scale":[0.1,0.1,0.1],"name":"Box028"},{"mesh":3,"translation":[-0.5467499,0.8636407,-1.00754821],"scale":[0.1,0.1,0.1],"name":"Box029"},{"mesh":4,"translation":[-1.06538761,0.8636407,-1.00754821],"scale":[0.1,0.1,0.1],"name":"Box030"},{"mesh":5,"translation":[1.14125,0.414126575,-0.981547236],"name":"Box053"},{"children":[7],"translation":[-0.966749847,0.290156543,-0.796048],"name":"Gaveta001"},{"mesh":6,"translation":[-1.52587887E-07,0.129046932,-0.007725067],"scale":[0.1,0.1,0.1],"name":"Box034"},{"mesh":7,"translation":[0.7762501,0.2502035,0.610452056],"name":"Box083"},{"mesh":8,"translation":[0.7762501,0.2502035,0.080952],"name":"Box084"},{"mesh":9,"translation":[0.7762501,0.2502035,-0.447547972],"name":"Box085"},{"mesh":10,"translation":[0.7762501,0.2502035,-0.977547944],"name":"Box086"},{"mesh":11,"translation":[-0.6106606,0.007210525,-0.973548055],"name":"Box088"},{"mesh":12,"translation":[0.221250147,0.007210525,0.835452],"name":"Box091"},{"mesh":13,"translation":[-0.231749877,0.007210525,0.835452],"name":"Box092"},{"children":[16],"translation":[-0.7757509,0.281703442,0.992451966],"name":"Barra001"},{"mesh":14,"translation":[-0.0110005187,-0.0100384522,-1.52587887E-07],"rotation":[-4.52377151E-07,-0.7071067,0.7071068,-4.52377066E-07],"scale":[0.1,0.1,0.1],"name":"Box061"},{"children":[18],"translation":[-0.841089845,-0.204143256,4.91777945],"rotation":[0.0,-9.536743E-07,0.0,1.0],"scale":[0.8796773,0.85408473,0.900221],"name":"Group#4 [146188]"},{"children":[19,20,21,22],"translation":[0.999520063,0.335287273,-5.507508],"rotation":[-1.0,2.47329961E-13,-3.258413E-07,-7.589672E-07],"scale":[1.0,0.99999994,0.99999994],"name":"bed sheets and pillows [145206]"},{"mesh":15,"translation":[0.0,0.129831716,2.002716E-07],"rotation":[4.509357E-14,-5.684342E-14,-1.04942905E-19,1.0],"scale":[1.0,1.26056588,0.9999999],"name":"obj_00#1 [130036]"},{"mesh":16,"translation":[-0.0154050486,0.0,-7.152557E-08],"rotation":[0.0,-5.684342E-14,-5.58537165E-20,1.0],"scale":[1.0,0.99999994,0.99999994],"name":"obj_04#3 [130038]"},{"mesh":17,"translation":[0.0,0.2649208,4.76837148E-09],"rotation":[0.0,-5.684342E-14,-5.58537165E-20,1.0],"scale":[1.0,0.99999994,0.99999994],"name":"obj_05#1 [130040]"},{"mesh":18,"translation":[0.0,0.2649208,4.76837148E-09],"rotation":[0.0,-5.684342E-14,-5.58537165E-20,1.0],"scale":[1.0,0.99999994,0.99999994],"name":"obj_06#1 [130042]"},{"translation":[0.00238185166,0.116186753,-0.8861919],"rotation":[0.7071068,5.76011345E-08,-5.76011452E-08,0.7071067],"scale":[0.989563644,0.9140426,0.99999994],"name":"Cobertor"},{"name":"Default light"}],"meshes":[{"primitives":[{"attributes":{"POSITION":1,"NORMAL":2,"TEXCOORD_0":3},"indices":0,"material":0}],"name":"Box026"},{"primitives":[{"attributes":{"POSITION":5,"NORMAL":6,"TEXCOORD_0":7},"indices":4,"material":0}],"name":"Box027"},{"primitives":[{"attributes":{"POSITION":9,"NORMAL":10,"TEXCOORD_0":11},"indices":8,"material":0}],"name":"Box028"},{"primitives":[{"attributes":{"POSITION":13,"NORMAL":14,"TEXCOORD_0":15},"indices":12,"material":0}],"name":"Box029"},{"primitives":[{"attributes":{"POSITION":17,"NORMAL":18,"TEXCOORD_0":19},"indices":16,"material":0}],"name":"Box030"},{"primitives":[{"attributes":{"POSITION":21,"NORMAL":22,"TEXCOORD_0":23},"indices":20,"material":1}],"name":"Box053"},{"primitives":[{"attributes":{"POSITION":25,"NORMAL":26,"TEXCOORD_0":27},"indices":24,"material":2}],"name":"Box034"},{"primitives":[{"attributes":{"POSITION":29,"NORMAL":30,"TEXCOORD_0":31},"indices":28,"material":3}],"name":"Box083"},{"primitives":[{"attributes":{"POSITION":33,"NORMAL":34,"TEXCOORD_0":35},"indices":32,"material":3}],"name":"Box084"},{"primitives":[{"attributes":{"POSITION":37,"NORMAL":38,"TEXCOORD_0":39},"indices":36,"material":3}],"name":"Box085"},{"primitives":[{"attributes":{"POSITION":41,"NORMAL":42,"TEXCOORD_0":43},"indices":40,"material":3}],"name":"Box086"},{"primitives":[{"attributes":{"POSITION":45,"NORMAL":46,"TEXCOORD_0":47},"indices":44,"material":2}],"name":"Box088"},{"primitives":[{"attributes":{"POSITION":49,"NORMAL":50,"TEXCOORD_0":51},"indices":48,"material":3}],"name":"Box091"},{"primitives":[{"attributes":{"POSITION":53,"NORMAL":54,"TEXCOORD_0":55},"indices":52,"material":3}],"name":"Box092"},{"primitives":[{"attributes":{"POSITION":57,"NORMAL":58,"TEXCOORD_0":59},"indices":56,"material":4},{"attributes":{"POSITION":61,"NORMAL":62,"TEXCOORD_0":63},"indices":60,"material":1},{"attributes":{"POSITION":65,"NORMAL":66,"TEXCOORD_0":67},"indices":64,"material":2}],"name":"Box061"},{"primitives":[{"attributes":{"POSITION":69,"NORMAL":70,"TEXCOORD_0":71},"indices":68,"material":5}],"name":"obj_00#1 [130036]"},{"primitives":[{"attributes":{"POSITION":73,"NORMAL":74,"TEXCOORD_0":75},"indices":72,"material":6}],"name":"obj_04#3 [130038]"},{"primitives":[{"attributes":{"POSITION":77,"NORMAL":78,"TEXCOORD_0":79},"indices":76,"material":7}],"name":"obj_05#1 [130040]"},{"primitives":[{"attributes":{"POSITION":81,"NORMAL":82,"TEXCOORD_0":83},"indices":80,"material":7}],"name":"obj_06#1 [130042]"}],"accessors":[{"bufferView":0,"componentType":5123,"count":36,"type":"SCALAR","name":"accessorIndices"},{"bufferView":1,"componentType":5126,"count":36,"max":[0.333781719,0.0,0.07031189],"min":[-0.333781719,-7.94099855,-0.07031189],"type":"VEC3","name":"accessorPositions"},{"bufferView":1,"byteOffset":432,"componentType":5126,"count":36,"type":"VEC3","name":"accessorNormals"},{"bufferView":2,"componentType":5126,"count":36,"type":"VEC2","name":"accessorUVs"},{"bufferView":0,"byteOffset":72,"componentType":5123,"count":36,"type":"SCALAR","name":"accessorIndices"},{"bufferView":1,"byteOffset":864,"componentType":5126,"count":36,"max":[-0.0120001221,0.001875,0.141563714],"min":[-0.6795636,-7.05487347,0.0009399414],"type":"VEC3","name":"accessorPositions"},{"bufferView":1,"byteOffset":1296,"componentType":5126,"count":36,"type":"VEC3","name":"accessorNormals"},{"bufferView":2,"byteOffset":288,"componentType":5126,"count":36,"type":"VEC2","name":"accessorUVs"},{"bufferView":0,"byteOffset":144,"componentType":5123,"count":36,"type":"SCALAR","name":"accessorIndices"},{"bufferView":1,"byteOffset":1728,"componentType":5126,"count":36,"max":[-0.0120001221,0.001875,0.141563714],"min":[-0.6795636,-7.05487347,0.0009399414],"type":"VEC3","name":"accessorPositions"},{"bufferView":1,"byteOffset":2160,"componentType":5126,"count":36,"type":"VEC3","name":"accessorNormals"},{"bufferView":2,"byteOffset":576,"componentType":5126,"count":36,"type":"VEC2","name":"accessorUVs"},{"bufferView":0,"byteOffset":216,"componentType":5123,"count":36,"type":"SCALAR","name":"accessorIndices"},{"bufferView":1,"byteOffset":2592,"componentType":5126,"count":36,"max":[-0.0120001221,0.001875,0.141563714],"min":[-0.6795636,-7.05487347,0.0009399414],"type":"VEC3","name":"accessorPositions"},{"bufferView":1,"byteOffset":3024,"componentType":5126,"count":36,"type":"VEC3","name":"accessorNormals"},{"bufferView":2,"byteOffset":864,"componentType":5126,"count":36,"type":"VEC2","name":"accessorUVs"},{"bufferView":0,"byteOffset":288,"componentType":5123,"count":36,"type":"SCALAR","name":"accessorIndices"},{"bufferView":1,"byteOffset":3456,"componentType":5126,"count":36,"max":[-0.0120001221,0.897374868,0.141563714],"min":[-0.6795636,-7.05487347,0.0009399414],"type":"VEC3","name":"accessorPositions"},{"bufferView":1,"byteOffset":3888,"componentType":5126,"count":36,"type":"VEC3","name":"accessorNormals"},{"bufferView":2,"byteOffset":1152,"componentType":5126,"count":36,"type":"VEC2","name":"accessorUVs"},{"bufferView":0,"byteOffset":360,"componentType":5123,"count":132,"type":"SCALAR","name":"accessorIndices"},{"bufferView":1,"byteOffset":4320,"componentType":5126,"count":132,"max":[1.66426994E-09,0.0100384224,0.0039994726],"min":[-2.28199983,-0.009961695,-0.00399938971],"type":"VEC3","name":"accessorPositions"},{"bufferView":1,"byteOffset":5904,"componentType":5126,"count":132,"type":"VEC3","name":"accessorNormals"},{"bufferView":2,"byteOffset":1440,"componentType":5126,"count":132,"type":"VEC2","name":"accessorUVs"},{"bufferView":0,"byteOffset":624,"componentType":5123,"count":684,"type":"SCALAR","name":"accessorIndices"},{"bufferView":1,"byteOffset":7488,"componentType":5126,"count":684,"max":[21.09,5.375,18.027256],"min":[-1.755,-4.175502,-1.88774729],"type":"VEC3","name":"accessorPositions"},{"bufferView":1,"byteOffset":15696,"componentType":5126,"count":684,"type":"VEC3","name":"accessorNormals"},{"bufferView":2,"byteOffset":2496,"componentType":5126,"count":684,"type":"VEC2","name":"accessorUVs"},{"bufferView":0,"byteOffset":1992,"componentType":5123,"count":36,"type":"SCALAR","name":"accessorIndices"},{"bufferView":1,"byteOffset":23904,"componentType":5126,"count":36,"max":[0.0,0.015,0.383999884],"min":[-1.552,0.0,0.0],"type":"VEC3","name":"accessorPositions"},{"bufferView":1,"byteOffset":24336,"componentType":5126,"count":36,"type":"VEC3","name":"accessorNormals"},{"bufferView":2,"byteOffset":7968,"componentType":5126,"count":36,"type":"VEC2","name":"accessorUVs"},{"bufferView":0,"byteOffset":2064,"componentType":5123,"count":36,"type":"SCALAR","name":"accessorIndices"},{"bufferView":1,"byteOffset":24768,"componentType":5126,"count":36,"max":[0.0,0.015,0.383999884],"min":[-1.552,0.0,0.0],"type":"VEC3","name":"accessorPositions"},{"bufferView":1,"byteOffset":25200,"componentType":5126,"count":36,"type":"VEC3","name":"accessorNormals"},{"bufferView":2,"byteOffset":8256,"componentType":5126,"count":36,"type":"VEC2","name":"accessorUVs"},{"bufferView":0,"byteOffset":2136,"componentType":5123,"count":36,"type":"SCALAR","name":"accessorIndices"},{"bufferView":1,"byteOffset":25632,"componentType":5126,"count":36,"max":[0.0,0.015,0.383999884],"min":[-1.552,0.0,0.0],"type":"VEC3","name":"accessorPositions"},{"bufferView":1,"byteOffset":26064,"componentType":5126,"count":36,"type":"VEC3","name":"accessorNormals"},{"bufferView":2,"byteOffset":8544,"componentType":5126,"count":36,"type":"VEC2","name":"accessorUVs"},{"bufferView":0,"byteOffset":2208,"componentType":5123,"count":36,"type":"SCALAR","name":"accessorIndices"},{"bufferView":1,"byteOffset":26496,"componentType":5126,"count":36,"max":[0.0,0.015,0.383999884],"min":[-1.552,0.0,0.0],"type":"VEC3","name":"accessorPositions"},{"bufferView":1,"byteOffset":26928,"componentType":5126,"count":36,"type":"VEC3","name":"accessorNormals"},{"bufferView":2,"byteOffset":8832,"componentType":5126,"count":36,"type":"VEC2","name":"accessorUVs"},{"bufferView":0,"byteOffset":2280,"componentType":5123,"count":36,"type":"SCALAR","name":"accessorIndices"},{"bufferView":1,"byteOffset":27360,"componentType":5126,"count":36,"max":[1.22791064,0.242992759,0.0109999822],"min":[-0.0060893246,-0.00555707933,-6.624553E-10],"type":"VEC3","name":"accessorPositions"},{"bufferView":1,"byteOffset":27792,"componentType":5126,"count":36,"type":"VEC3","name":"accessorNormals"},{"bufferView":2,"byteOffset":9120,"componentType":5126,"count":36,"type":"VEC2","name":"accessorUVs"},{"bufferView":0,"byteOffset":2352,"componentType":5123,"count":36,"type":"SCALAR","name":"accessorIndices"},{"bufferView":1,"byteOffset":28224,"componentType":5126,"count":36,"max":[0.0110000074,0.242992848,-5.96046434E-10],"min":[-6.62455535E-10,-0.005557081,-1.79799986],"type":"VEC3","name":"accessorPositions"},{"bufferView":1,"byteOffset":28656,"componentType":5126,"count":36,"type":"VEC3","name":"accessorNormals"},{"bufferView":2,"byteOffset":9408,"componentType":5126,"count":36,"type":"VEC2","name":"accessorUVs"},{"bufferView":0,"byteOffset":2424,"componentType":5123,"count":36,"type":"SCALAR","name":"accessorIndices"},{"bufferView":1,"byteOffset":29088,"componentType":5126,"count":36,"max":[0.0110000074,0.242992848,-5.96046434E-10],"min":[-6.62455535E-10,-0.005557081,-1.79799986],"type":"VEC3","name":"accessorPositions"},{"bufferView":1,"byteOffset":29520,"componentType":5126,"count":36,"type":"VEC3","name":"accessorNormals"},{"bufferView":2,"byteOffset":9696,"componentType":5126,"count":36,"type":"VEC2","name":"accessorUVs"},{"bufferView":0,"byteOffset":2496,"componentType":5123,"count":1056,"type":"SCALAR","name":"accessorIndices"},{"bufferView":1,"byteOffset":29952,"componentType":5126,"count":1056,"max":[0.0399968,19.6955166,1.165002],"min":[-15.7800016,-0.121567711,-0.100387275],"type":"VEC3","name":"accessorPositions"},{"bufferView":1,"byteOffset":42624,"componentType":5126,"count":1056,"type":"VEC3","name":"accessorNormals"},{"bufferView":2,"byteOffset":9984,"componentType":5126,"count":1056,"type":"VEC2","name":"accessorUVs"},{"bufferView":0,"byteOffset":4608,"componentType":5123,"count":3036,"type":"SCALAR","name":"accessorIndices"},{"bufferView":1,"byteOffset":55296,"componentType":5126,"count":3036,"max":[3.540011,19.7800083,1.16500211],"min":[-19.27999,-0.121564291,-6.850388],"type":"VEC3","name":"accessorPositions"},{"bufferView":1,"byteOffset":91728,"componentType":5126,"count":3036,"type":"VEC3","name":"accessorNormals"},{"bufferView":2,"byteOffset":18432,"componentType":5126,"count":3036,"type":"VEC2","name":"accessorUVs"},{"bufferView":0,"byteOffset":10680,"componentType":5123,"count":528,"type":"SCALAR","name":"accessorIndices"},{"bufferView":1,"byteOffset":128160,"componentType":5126,"count":528,"max":[3.55500484,16.1499882,1.16499937],"min":[-0.10945709,16.0699959,-0.10038662],"type":"VEC3","name":"accessorPositions"},{"bufferView":1,"byteOffset":134496,"componentType":5126,"count":528,"type":"VEC3","name":"accessorNormals"},{"bufferView":2,"byteOffset":42720,"componentType":5126,"count":528,"type":"VEC2","name":"accessorUVs"},{"bufferView":0,"byteOffset":11736,"componentType":5123,"count":2052,"type":"SCALAR","name":"accessorIndices"},{"bufferView":1,"byteOffset":140832,"componentType":5126,"count":2052,"max":[0.7482848,-0.2139409,1.03650594],"min":[-0.830269456,-0.507193565,-1.050103],"type":"VEC3","name":"accessorPositions"},{"bufferView":1,"byteOffset":165456,"componentType":5126,"count":2052,"type":"VEC3","name":"accessorNormals"},{"bufferView":2,"byteOffset":46944,"componentType":5126,"count":2052,"type":"VEC2","name":"accessorUVs"},{"bufferView":0,"byteOffset":15840,"componentType":5123,"count":38400,"type":"SCALAR","name":"accessorIndices"},{"bufferView":1,"byteOffset":190080,"componentType":5126,"count":38400,"max":[1.01011169,-0.227775589,0.368300438],"min":[-0.9841153,-0.721968234,-1.09262133],"type":"VEC3","name":"accessorPositions"},{"bufferView":1,"byteOffset":650880,"componentType":5126,"count":38400,"type":"VEC3","name":"accessorNormals"},{"bufferView":2,"byteOffset":63360,"componentType":5126,"count":38400,"type":"VEC2","name":"accessorUVs"},{"bufferView":0,"byteOffset":92640,"componentType":5123,"count":1152,"type":"SCALAR","name":"accessorIndices"},{"bufferView":1,"byteOffset":1111680,"componentType":5126,"count":1152,"max":[0.606557,-0.745239854,0.9226481],"min":[-0.0431625657,-0.918002248,0.4106639],"type":"VEC3","name":"accessorPositions"},{"bufferView":1,"byteOffset":1125504,"componentType":5126,"count":1152,"type":"VEC3","name":"accessorNormals"},{"bufferView":2,"byteOffset":370560,"componentType":5126,"count":1152,"type":"VEC2","name":"accessorUVs"},{"bufferView":0,"byteOffset":94944,"componentType":5123,"count":1152,"type":"SCALAR","name":"accessorIndices"},{"bufferView":1,"byteOffset":1139328,"componentType":5126,"count":1152,"max":[-0.0872548148,-0.745239854,0.9226481],"min":[-0.7369744,-0.918002248,0.4106639],"type":"VEC3","name":"accessorPositions"},{"bufferView":1,"byteOffset":1153152,"componentType":5126,"count":1152,"type":"VEC3","name":"accessorNormals"},{"bufferView":2,"byteOffset":379776,"componentType":5126,"count":1152,"type":"VEC2","name":"accessorUVs"}],"bufferViews":[{"buffer":0,"byteLength":97248,"name":"bufferViewScalar"},{"buffer":0,"byteOffset":97248,"byteLength":1166976,"byteStride":12,"name":"bufferViewFloatVec3"},{"buffer":0,"byteOffset":1264224,"byteLength":388992,"byteStride":8,"name":"bufferViewFloatVec2"}],"buffers":[{"uri":"Cama02.bin","byteLength":1653216}],"materials":[{"pbrMetallicRoughness":{"baseColorTexture":{"index":0},"metallicRoughnessTexture":{"index":1}},"name":"Carvai"},{"pbrMetallicRoughness":{"baseColorTexture":{"index":3},"metallicFactor":0.0,"roughnessFactor":0.9},"occlusionTexture":{"index":2},"name":"Carvalho2"},{"pbrMetallicRoughness":{"baseColorTexture":{"index":0},"metallicFactor":0.0,"roughnessFactor":0.9},"occlusionTexture":{"index":4},"name":"Carvalho1"},{"pbrMetallicRoughness":{"baseColorTexture":{"index":5},"metallicFactor":0.0,"roughnessFactor":0.6},"name":"MAD_MDF"},{"pbrMetallicRoughness":{"baseColorTexture":{"index":0},"metallicRoughnessTexture":{"index":1}},"name":"Carvalho 01"},{"pbrMetallicRoughness":{"baseColorFactor":[0.6039216,0.6039216,0.6039216,1.0],"metallicFactor":0.0,"roughnessFactor":0.8},"name":"Colchão"},{"pbrMetallicRoughness":{"baseColorFactor":[0.123529412,0.120784312,0.112549022,1.0],"metallicFactor":0.0,"roughnessFactor":0.8},"name":"Edredon"},{"pbrMetallicRoughness":{"baseColorFactor":[0.323921561,0.323921561,0.323921561,1.0],"metallicFactor":0.0,"roughnessFactor":0.8},"name":"Travesseiro"}],"textures":[{"sampler":0,"source":0,"name":"american_walnut_crown_cut_Base_Color.jpg"},{"sampler":0,"source":1,"name":"american_walnut_crown_cut_Roughness0.jpg"},{"sampler":0,"source":2,"name":"american_walnut_crown_cut_Roughness_2.jpg"},{"sampler":0,"source":3,"name":"american_walnut_crown_cut_Base_Color_2.jpg"},{"sampler":0,"source":4,"name":"american_walnut_crown_cut_Roughness.jpg"},{"sampler":0,"source":5,"name":"MDF_C.jpg"}],"images":[{"uri":"./american_walnut_crown_cut_Base_Color.jpg"},{"uri":"./american_walnut_crown_cut_Roughness0.jpg"},{"uri":"./american_walnut_crown_cut_Roughness_2.jpg"},{"uri":"./american_walnut_crown_cut_Base_Color_2.jpg"},{"uri":"./american_walnut_crown_cut_Roughness.jpg"},{"uri":"./MDF_C.jpg"}],"samplers":[{"magFilter":9729,"minFilter":9987},{"magFilter":9729,"minFilter":9987,"wrapS":33648}]}